<?xml version="1.0" encoding="UTF-8"?>
<!DOCTYPE svg PUBLIC "-//W3C//DTD SVG 1.1//EN" "http://www.w3.org/Graphics/SVG/1.1/DTD/svg11.dtd">
<svg xmlns="http://www.w3.org/2000/svg" version="1.1" width="2388px" height="600px" style="shape-rendering:geometricPrecision; text-rendering:geometricPrecision; image-rendering:optimizeQuality; fill-rule:evenodd; clip-rule:evenodd" xmlns:xlink="http://www.w3.org/1999/xlink">
<g><path style="opacity:1" fill="#fefefe" d="M -0.5,-0.5 C 795.5,-0.5 1591.5,-0.5 2387.5,-0.5C 2387.5,199.5 2387.5,399.5 2387.5,599.5C 1591.5,599.5 795.5,599.5 -0.5,599.5C -0.5,399.5 -0.5,199.5 -0.5,-0.5 Z"/></g>
<g><path style="opacity:1" fill="#a6cde6" d="M 1220.5,236.5 C 1215.44,237.355 1210.78,239.355 1206.5,242.5C 1209.86,237.827 1214.53,235.827 1220.5,236.5 Z"/></g>
<g><path style="opacity:1" fill="#a7cce7" d="M 1221.5,236.5 C 1237.86,238.05 1244.7,247.05 1242,263.5C 1240.31,270.35 1236.15,274.683 1229.5,276.5C 1241.74,268.927 1244.57,258.594 1238,245.5C 1233.47,240.487 1227.97,237.487 1221.5,236.5 Z"/></g>
<g><path style="opacity:1" fill="#b6cdce" d="M 683.5,252.5 C 683.167,252.5 682.833,252.5 682.5,252.5C 682.5,249.167 682.5,245.833 682.5,242.5C 675.492,242.334 668.492,242.5 661.5,243C 660.594,244.699 660.261,246.533 660.5,248.5C 660.5,248.833 660.5,249.167 660.5,249.5C 659.186,247.105 659.186,244.605 660.5,242C 668.159,241.5 675.826,241.334 683.5,241.5C 683.5,245.167 683.5,248.833 683.5,252.5 Z"/></g>
<g><path style="opacity:1" fill="#9ccdfd" d="M 520.5,238.5 C 520.5,238.833 520.5,239.167 520.5,239.5C 513.825,239.334 507.158,239.5 500.5,240C 499.856,244.934 499.19,249.767 498.5,254.5C 498.5,254.167 498.5,253.833 498.5,253.5C 498.197,248.57 498.531,243.737 499.5,239C 506.492,238.5 513.492,238.334 520.5,238.5 Z"/></g>
<g><path style="opacity:1" fill="#034bc6" d="M 682.5,252.5 C 683.13,258.934 683.797,265.267 684.5,271.5C 702.993,272.497 721.659,272.83 740.5,272.5C 740.5,277.833 740.5,283.167 740.5,288.5C 721.659,288.17 702.993,288.503 684.5,289.5C 684.5,289.833 684.5,290.167 684.5,290.5C 684.5,293.167 684.5,295.833 684.5,298.5C 684.5,298.833 684.5,299.167 684.5,299.5C 683.868,307.573 684.535,315.24 686.5,322.5C 686.5,323.833 686.5,325.167 686.5,326.5C 707.167,326.5 727.833,326.5 748.5,326.5C 748.5,332.5 748.5,338.5 748.5,344.5C 728.5,344.5 708.5,344.5 688.5,344.5C 687.606,361.031 687.94,377.698 689.5,394.5C 682.167,394.5 674.833,394.5 667.5,394.5C 666.843,377.661 665.843,360.995 664.5,344.5C 643.5,344.5 622.5,344.5 601.5,344.5C 601.5,338.5 601.5,332.5 601.5,326.5C 622.5,326.5 643.5,326.5 664.5,326.5C 664.5,323.833 664.5,321.167 664.5,318.5C 665.134,310.097 664.467,302.097 662.5,294.5C 662.5,293.167 662.5,291.833 662.5,290.5C 647.272,289.952 631.939,289.119 616.5,288C 613.667,286.5 611.5,284.333 610,281.5C 608.675,276.599 608.175,271.599 608.5,266.5C 613.833,266.5 619.167,266.5 624.5,266.5C 624.157,268.483 624.824,269.817 626.5,270.5C 632.128,271.829 638.128,272.496 644.5,272.5C 650.676,272.5 656.676,272.166 662.5,271.5C 661.863,263.734 661.196,256.067 660.5,248.5C 660.261,246.533 660.594,244.699 661.5,243C 668.492,242.5 675.492,242.334 682.5,242.5C 682.5,245.833 682.5,249.167 682.5,252.5 Z"/></g>
<g><path style="opacity:1" fill="#044bc5" d="M 520.5,239.5 C 520.5,244.5 520.5,249.5 520.5,254.5C 542.5,254.5 564.5,254.5 586.5,254.5C 586.5,259.833 586.5,265.167 586.5,270.5C 580.974,270.179 575.64,270.512 570.5,271.5C 569.167,275.167 569.167,278.833 570.5,282.5C 570.5,286.5 570.5,290.5 570.5,294.5C 572.892,320.425 575.059,346.425 577,372.5C 577.278,373.416 577.778,374.082 578.5,374.5C 581.625,375.479 584.958,375.813 588.5,375.5C 588.807,381.093 588.473,386.593 587.5,392C 581.167,392.667 574.833,392.667 568.5,392C 564.363,391.349 560.863,389.515 558,386.5C 554.4,349.748 551.234,313.081 548.5,276.5C 548.5,275.167 548.5,273.833 548.5,272.5C 539.348,271.506 530.015,271.173 520.5,271.5C 520.5,313.167 520.5,354.833 520.5,396.5C 513.5,396.5 506.5,396.5 499.5,396.5C 499.5,354.833 499.5,313.167 499.5,271.5C 490.318,271.173 481.318,271.507 472.5,272.5C 472.5,273.833 472.5,275.167 472.5,276.5C 470.577,280.029 469.911,284.029 470.5,288.5C 469.167,305.166 467.833,321.833 466.5,338.5C 464.586,341.684 463.92,345.351 464.5,349.5C 464.38,361.71 462.88,373.71 460,385.5C 458.062,388.106 455.562,389.939 452.5,391C 446.565,392.239 440.565,392.739 434.5,392.5C 433.514,388.557 432.848,384.557 432.5,380.5C 432.5,379.167 432.5,377.833 432.5,376.5C 435.698,377.036 438.365,376.369 440.5,374.5C 442.299,371.495 442.966,368.162 442.5,364.5C 444.414,361.316 445.08,357.649 444.5,353.5C 446.107,333.161 447.773,312.828 449.5,292.5C 450.479,289.375 450.813,286.042 450.5,282.5C 451.198,279.103 451.865,275.603 452.5,272C 445.842,271.5 439.175,271.334 432.5,271.5C 432.5,265.833 432.5,260.167 432.5,254.5C 454.5,254.5 476.5,254.5 498.5,254.5C 499.19,249.767 499.856,244.934 500.5,240C 507.158,239.5 513.825,239.334 520.5,239.5 Z"/></g>
<g><path style="opacity:1" fill="#b7cccf" d="M 498.5,253.5 C 498.5,253.833 498.5,254.167 498.5,254.5C 476.5,254.5 454.5,254.5 432.5,254.5C 432.5,260.167 432.5,265.833 432.5,271.5C 432.5,271.833 432.5,272.167 432.5,272.5C 431.51,266.355 431.177,260.022 431.5,253.5C 453.833,253.5 476.167,253.5 498.5,253.5 Z"/></g>
<g><path style="opacity:1" fill="#b7cccf" d="M 520.5,238.5 C 521.487,243.305 521.821,248.305 521.5,253.5C 544.006,253.169 566.34,253.503 588.5,254.5C 588.167,254.5 587.833,254.5 587.5,254.5C 587.167,254.5 586.833,254.5 586.5,254.5C 564.5,254.5 542.5,254.5 520.5,254.5C 520.5,249.5 520.5,244.5 520.5,239.5C 520.5,239.167 520.5,238.833 520.5,238.5 Z"/></g>
<g><path style="opacity:1" fill="#044bc6" d="M 258.5,295.5 C 240.833,295.5 223.167,295.5 205.5,295.5C 205.216,297.415 205.549,299.081 206.5,300.5C 210.31,326.03 214.977,351.363 220.5,376.5C 232.789,378.48 245.456,379.147 258.5,378.5C 258.5,383.833 258.5,389.167 258.5,394.5C 242.83,394.667 227.163,394.5 211.5,394C 205.803,393.134 202.137,389.967 200.5,384.5C 198.031,370.991 195.364,357.658 192.5,344.5C 192.5,343.167 192.5,341.833 192.5,340.5C 190.072,327.36 187.406,314.36 184.5,301.5C 184.5,299.833 184.5,298.167 184.5,296.5C 172.211,294.52 159.544,293.853 146.5,294.5C 146.5,289.167 146.5,283.833 146.5,278.5C 157.833,278.5 169.167,278.5 180.5,278.5C 178.37,265.853 176.37,253.186 174.5,240.5C 181.5,240.5 188.5,240.5 195.5,240.5C 197.5,253.167 199.5,265.833 201.5,278.5C 209.833,278.5 218.167,278.5 226.5,278.5C 224.643,267.405 222.31,256.405 219.5,245.5C 225.807,244.336 232.141,244.169 238.5,245C 241.227,255.744 243.727,266.578 246,277.5C 250,278.167 254,278.833 258,279.5C 258.499,284.823 258.666,290.156 258.5,295.5 Z"/></g>
<g><path style="opacity:1" fill="#adcddb" d="M 332.5,264.5 C 333.966,260.779 335.633,257.112 337.5,253.5C 330.5,252.167 323.5,252.167 316.5,253.5C 313.787,258.925 311.121,264.259 308.5,269.5C 309.985,263.523 312.319,257.857 315.5,252.5C 323.138,251.503 330.804,251.169 338.5,251.5C 337.926,255.325 336.759,258.991 335,262.5C 334.583,263.756 333.75,264.423 332.5,264.5 Z"/></g>
<g><path style="opacity:1" fill="#064bc5" d="M 332.5,264.5 C 332.5,264.833 332.5,265.167 332.5,265.5C 331.069,266.78 330.402,268.447 330.5,270.5C 355.833,270.5 381.167,270.5 406.5,270.5C 406.666,276.176 406.499,281.843 406,287.5C 405.487,288.527 404.987,289.527 404.5,290.5C 401.833,295.833 399.167,301.167 396.5,306.5C 387.304,323.558 378.638,340.891 370.5,358.5C 380.833,358.5 391.167,358.5 401.5,358.5C 401.807,364.093 401.473,369.593 400.5,375C 377.169,375.5 353.836,375.667 330.5,375.5C 327.199,374.716 323.866,373.716 320.5,372.5C 317.806,370.832 315.306,368.832 313,366.5C 309.088,359.675 304.921,353.009 300.5,346.5C 298.069,341.893 295.402,337.393 292.5,333C 299.5,332.333 306.5,332.333 313.5,333C 314.636,334.145 315.636,335.312 316.5,336.5C 317.475,338.795 318.808,340.795 320.5,342.5C 323.555,348.114 327.222,353.281 331.5,358C 337.167,358.667 342.833,358.667 348.5,358C 349.305,356.887 349.972,355.721 350.5,354.5C 352.771,350.291 354.771,345.958 356.5,341.5C 365.929,324.976 374.596,307.976 382.5,290.5C 383.478,290.189 384.145,289.522 384.5,288.5C 363.511,287.5 342.511,287.167 321.5,287.5C 319.722,295.903 315.722,302.903 309.5,308.5C 309.167,308.5 308.833,308.5 308.5,308.5C 307.527,308.987 306.527,309.487 305.5,310C 298.174,310.5 290.841,310.666 283.5,310.5C 282.5,305.167 281.5,299.833 280.5,294.5C 286.358,295.013 292.025,294.346 297.5,292.5C 301.707,285.419 305.374,278.086 308.5,270.5C 308.5,270.167 308.5,269.833 308.5,269.5C 311.121,264.259 313.787,258.925 316.5,253.5C 323.5,252.167 330.5,252.167 337.5,253.5C 335.633,257.112 333.966,260.779 332.5,264.5 Z"/></g>
<g><path style="opacity:1" fill="#abcbe0" d="M 1280.5,257.5 C 1279.83,257.5 1279.5,257.167 1279.5,256.5C 1279.5,255.5 1279.5,254.5 1279.5,253.5C 1273.64,253.178 1267.98,253.511 1262.5,254.5C 1262.33,259.179 1262.5,263.845 1263,268.5C 1264.68,271.671 1266.85,274.337 1269.5,276.5C 1265.62,275.789 1263.12,273.456 1262,269.5C 1261.5,263.843 1261.33,258.176 1261.5,252.5C 1267.83,252.5 1274.17,252.5 1280.5,252.5C 1280.5,254.167 1280.5,255.833 1280.5,257.5 Z"/></g>
<g><path style="opacity:1" fill="#1f4e8e" d="M 1262.5,254.5 C 1267.98,253.511 1273.64,253.178 1279.5,253.5C 1279.5,254.5 1279.5,255.5 1279.5,256.5C 1274.13,254.621 1268.46,253.955 1262.5,254.5 Z"/></g>
<g><path style="opacity:1" fill="#accddf" d="M 142.5,250.5 C 143.341,247.481 144.341,244.481 145.5,241.5C 138.532,240.503 131.532,240.17 124.5,240.5C 121.739,252.105 118.406,263.439 114.5,274.5C 117.291,262.792 120.291,251.125 123.5,239.5C 131.167,239.5 138.833,239.5 146.5,239.5C 146.301,243.78 144.968,247.447 142.5,250.5 Z"/></g>
<g><path style="opacity:1" fill="#b5ccd4" d="M 2130.5,264.5 C 2130.17,264.5 2129.83,264.5 2129.5,264.5C 2097.17,264.5 2064.83,264.5 2032.5,264.5C 2032.5,274.833 2032.5,285.167 2032.5,295.5C 2038.5,295.5 2044.5,295.5 2050.5,295.5C 2050.5,295.833 2050.5,296.167 2050.5,296.5C 2044.17,296.5 2037.83,296.5 2031.5,296.5C 2031.5,285.5 2031.5,274.5 2031.5,263.5C 2064.67,263.168 2097.67,263.502 2130.5,264.5 Z"/></g>
<g><path style="opacity:1" fill="#9dcdfb" d="M 818.5,270.5 C 817.833,269.167 817.167,267.833 816.5,266.5C 810.355,265.51 804.022,265.177 797.5,265.5C 797.5,266.5 797.5,267.5 797.5,268.5C 796.566,267.432 796.232,266.099 796.5,264.5C 803.508,264.334 810.508,264.5 817.5,265C 818.406,266.699 818.739,268.533 818.5,270.5 Z"/></g>
<g><path style="opacity:1" fill="#054bc5" d="M 976.5,270.5 C 982.433,272.7 988.433,274.7 994.5,276.5C 1002.25,279.864 1010.25,282.864 1018.5,285.5C 1019.67,287.167 1019.67,288.834 1018.5,290.5C 1018.5,290.833 1018.5,291.167 1018.5,291.5C 1016.26,295.534 1014.6,299.868 1013.5,304.5C 1002.92,301.973 992.586,298.64 982.5,294.5C 981.833,294.5 981.167,294.5 980.5,294.5C 970.491,290.715 960.491,286.715 950.5,282.5C 949.167,281.833 947.833,281.167 946.5,280.5C 944.499,277.832 942.999,274.832 942,271.5C 941.501,266.511 941.334,261.511 941.5,256.5C 947.167,256.5 952.833,256.5 958.5,256.5C 957.875,259.97 958.875,262.804 961.5,265C 966.49,266.94 971.49,268.774 976.5,270.5 Z"/></g>
<g><path style="opacity:1" fill="#accce1" d="M 1206.5,242.5 C 1198.5,252.5 1198.5,262.5 1206.5,272.5C 1205.5,272.586 1204.67,272.252 1204,271.5C 1198,262.167 1198,252.833 1204,243.5C 1204.67,242.748 1205.5,242.414 1206.5,242.5 Z"/></g>
<g><path style="opacity:1" fill="#1c508a" d="M 816.5,266.5 C 810.074,265.88 804.074,266.547 798.5,268.5C 798.167,268.5 797.833,268.5 797.5,268.5C 797.5,267.5 797.5,266.5 797.5,265.5C 804.022,265.177 810.355,265.51 816.5,266.5 Z"/></g>
<g><path style="opacity:1" fill="#1f4f8d" d="M 608.5,266.5 C 608.5,266.167 608.5,265.833 608.5,265.5C 614.167,265.5 619.833,265.5 625.5,265.5C 625.366,267.292 625.699,268.958 626.5,270.5C 624.824,269.817 624.157,268.483 624.5,266.5C 619.167,266.5 613.833,266.5 608.5,266.5 Z"/></g>
<g><path style="opacity:1" fill="#9ccbfe" d="M 2253.5,264.5 C 2254.17,273.994 2254.5,283.661 2254.5,293.5C 2254.5,303.524 2253.83,313.191 2252.5,322.5C 2253.49,303.243 2253.82,283.909 2253.5,264.5 Z"/></g>
<g><path style="opacity:1" fill="#b7cccf" d="M 332.5,265.5 C 332.67,266.822 332.337,267.989 331.5,269C 356.831,269.5 382.164,269.667 407.5,269.5C 407.666,275.842 407.5,282.175 407,288.5C 406.583,289.756 405.75,290.423 404.5,290.5C 404.987,289.527 405.487,288.527 406,287.5C 406.499,281.843 406.666,276.176 406.5,270.5C 381.167,270.5 355.833,270.5 330.5,270.5C 330.402,268.447 331.069,266.78 332.5,265.5 Z"/></g>
<g><path style="opacity:1" fill="#194f8e" d="M 586.5,254.5 C 586.833,254.5 587.167,254.5 587.5,254.5C 587.5,260.167 587.5,265.833 587.5,271.5C 581.833,271.5 576.167,271.5 570.5,271.5C 575.64,270.512 580.974,270.179 586.5,270.5C 586.5,265.167 586.5,259.833 586.5,254.5 Z"/></g>
<g><path style="opacity:1" fill="#9cccfe" d="M 660.5,248.5 C 661.196,256.067 661.863,263.734 662.5,271.5C 650.42,271.812 638.42,271.479 626.5,270.5C 625.699,268.958 625.366,267.292 625.5,265.5C 619.833,265.5 614.167,265.5 608.5,265.5C 608.5,265.167 608.5,264.833 608.5,264.5C 614.5,264.5 620.5,264.5 626.5,264.5C 626.178,266.722 626.845,268.556 628.5,270C 639.161,270.5 649.828,270.667 660.5,270.5C 660.5,263.5 660.5,256.5 660.5,249.5C 660.5,249.167 660.5,248.833 660.5,248.5 Z"/></g>
<g><path style="opacity:1" fill="#084bc3" d="M 1220.5,236.5 C 1220.83,236.5 1221.17,236.5 1221.5,236.5C 1227.97,237.487 1233.47,240.487 1238,245.5C 1244.57,258.594 1241.74,268.927 1229.5,276.5C 1229.17,276.5 1228.83,276.5 1228.5,276.5C 1220.62,279.073 1213.28,277.74 1206.5,272.5C 1198.5,262.5 1198.5,252.5 1206.5,242.5C 1210.78,239.355 1215.44,237.355 1220.5,236.5 Z"/></g>
<g><path style="opacity:1" fill="#b7d7f0" d="M 1224.5,250.5 C 1230.2,254.155 1230.87,258.655 1226.5,264C 1216.85,267.012 1212.68,263.512 1214,253.5C 1216.9,249.78 1220.4,248.78 1224.5,250.5 Z"/></g>
<g><path style="opacity:1" fill="#fafdfc" d="M 1224.5,250.5 C 1226.35,254.267 1226.85,258.267 1226,262.5C 1221.78,265.366 1218.11,264.699 1215,260.5C 1214.13,253.535 1217.29,250.202 1224.5,250.5 Z"/></g>
<g><path style="opacity:1" fill="#9bccff" d="M 432.5,272.5 C 432.5,272.167 432.5,271.833 432.5,271.5C 439.175,271.334 445.842,271.5 452.5,272C 451.865,275.603 451.198,279.103 450.5,282.5C 450.5,279.167 450.5,275.833 450.5,272.5C 444.5,272.5 438.5,272.5 432.5,272.5 Z"/></g>
<g><path style="opacity:1" fill="#9cccfd" d="M 587.5,254.5 C 587.833,254.5 588.167,254.5 588.5,254.5C 588.5,260.5 588.5,266.5 588.5,272.5C 582.5,272.5 576.5,272.5 570.5,272.5C 570.5,275.833 570.5,279.167 570.5,282.5C 569.167,278.833 569.167,275.167 570.5,271.5C 576.167,271.5 581.833,271.5 587.5,271.5C 587.5,265.833 587.5,260.167 587.5,254.5 Z"/></g>
<g><path style="opacity:1" fill="#184f8e" d="M 626.5,270.5 C 638.42,271.479 650.42,271.812 662.5,271.5C 656.676,272.166 650.676,272.5 644.5,272.5C 638.128,272.496 632.128,271.829 626.5,270.5 Z"/></g>
<g><path style="opacity:1" fill="#fefefe" d="M 472.5,272.5 C 481.167,272.5 489.833,272.5 498.5,272.5C 498.5,307.5 498.5,342.5 498.5,377.5C 486.833,377.5 475.167,377.5 463.5,377.5C 466.861,344.198 469.861,310.865 472.5,277.5C 472.5,277.167 472.5,276.833 472.5,276.5C 472.5,275.167 472.5,273.833 472.5,272.5 Z"/></g>
<g><path style="opacity:1" fill="#fdfefe" d="M 548.5,272.5 C 548.5,273.833 548.5,275.167 548.5,276.5C 550.172,309.902 552.505,343.235 555.5,376.5C 544.186,377.499 532.853,377.832 521.5,377.5C 521.5,342.5 521.5,307.5 521.5,272.5C 530.5,272.5 539.5,272.5 548.5,272.5 Z"/></g>
<g><path style="opacity:1" fill="#b5d5e7" d="M 976.5,270.5 C 971.49,268.774 966.49,266.94 961.5,265C 958.875,262.804 957.875,259.97 958.5,256.5C 952.833,256.5 947.167,256.5 941.5,256.5C 941.334,261.511 941.501,266.511 942,271.5C 942.999,274.832 944.499,277.832 946.5,280.5C 944.433,279.737 942.766,278.404 941.5,276.5C 940.503,269.532 940.17,262.532 940.5,255.5C 946.833,255.5 953.167,255.5 959.5,255.5C 958.875,258.97 959.875,261.804 962.5,264C 966.346,265.669 970.346,266.836 974.5,267.5C 975.612,268.265 976.279,269.265 976.5,270.5 Z"/></g>
<g><path style="opacity:1" fill="#a4c9e5" d="M 1204.5,292.5 C 1200.23,281.357 1196.56,270.024 1193.5,258.5C 1193.5,257.5 1193.5,256.5 1193.5,255.5C 1185.65,255.175 1177.98,255.508 1170.5,256.5C 1174.7,269.774 1178.7,283.107 1182.5,296.5C 1181.41,296.38 1180.75,295.713 1180.5,294.5C 1176.42,281.257 1172.75,267.924 1169.5,254.5C 1177.83,254.5 1186.17,254.5 1194.5,254.5C 1198.04,267.125 1201.38,279.792 1204.5,292.5 Z"/></g>
<g><path style="opacity:1" fill="#19508d" d="M 1170.5,256.5 C 1177.98,255.508 1185.65,255.175 1193.5,255.5C 1193.5,256.5 1193.5,257.5 1193.5,258.5C 1186.11,256.586 1178.44,255.919 1170.5,256.5 Z"/></g>
<g><path style="opacity:1" fill="#afccdc" d="M 258.5,296.5 C 258.5,296.167 258.5,295.833 258.5,295.5C 258.666,290.156 258.499,284.823 258,279.5C 254,278.833 250,278.167 246,277.5C 243.727,266.578 241.227,255.744 238.5,245C 232.141,244.169 225.807,244.336 219.5,245.5C 222.31,256.405 224.643,267.405 226.5,278.5C 218.167,278.5 209.833,278.5 201.5,278.5C 199.5,265.833 197.5,253.167 195.5,240.5C 188.5,240.5 181.5,240.5 174.5,240.5C 176.37,253.186 178.37,265.853 180.5,278.5C 169.167,278.5 157.833,278.5 146.5,278.5C 146.5,283.833 146.5,289.167 146.5,294.5C 158.833,295.167 171.167,295.833 183.5,296.5C 170.833,296.5 158.167,296.5 145.5,296.5C 145.5,290.167 145.5,283.833 145.5,277.5C 156.833,277.5 168.167,277.5 179.5,277.5C 176.853,264.933 174.853,252.266 173.5,239.5C 181.167,239.5 188.833,239.5 196.5,239.5C 198.5,252.167 200.5,264.833 202.5,277.5C 210.167,277.5 217.833,277.5 225.5,277.5C 222.911,266.22 220.577,254.887 218.5,243.5C 225.755,243.187 232.921,243.52 240,244.5C 242.333,255.167 244.667,265.833 247,276.5C 251,277.167 255,277.833 259,278.5C 259.819,284.681 259.653,290.681 258.5,296.5 Z"/></g>
<g><path style="opacity:1" fill="#b7cccf" d="M 1270.5,276.5 C 1272.75,277.21 1275.08,277.71 1277.5,278C 1304.5,278.333 1331.5,278.667 1358.5,279C 1359,279.5 1359.5,280 1360,280.5C 1360.67,288.5 1360.67,296.5 1360,304.5C 1359.72,305.416 1359.22,306.082 1358.5,306.5C 1359.57,298.202 1359.74,289.868 1359,281.5C 1358.5,281 1358,280.5 1357.5,280C 1330.5,279.667 1303.5,279.333 1276.5,279C 1273.95,278.998 1271.95,278.164 1270.5,276.5 Z"/></g>
<g><path style="opacity:1" fill="#bedcf0" d="M 1206.5,272.5 C 1213.28,277.74 1220.62,279.073 1228.5,276.5C 1226.22,278.178 1223.55,279.511 1220.5,280.5C 1215.99,279.097 1211.66,277.264 1207.5,275C 1206.75,274.329 1206.41,273.496 1206.5,272.5 Z"/></g>
<g><path style="opacity:1" fill="#accbe7" d="M 798.5,273.5 C 799.97,278.374 801.303,283.374 802.5,288.5C 799.81,284.091 798.477,279.091 798.5,273.5 Z"/></g>
<g><path style="opacity:1" fill="#a8cce8" d="M 1054.5,374.5 C 1062.34,343.648 1069.67,312.648 1076.5,281.5C 1069.93,279.81 1063.43,277.81 1057,275.5C 1056.5,275.833 1056,276.167 1055.5,276.5C 1048.81,305.113 1042.31,333.779 1036,362.5C 1035.65,364.848 1034.49,366.681 1032.5,368C 1020.59,369.147 1008.59,369.647 996.5,369.5C 984.995,369.5 973.662,369.167 962.5,368.5C 985.591,368.979 1008.59,368.479 1031.5,367C 1033.49,365.681 1034.65,363.848 1035,361.5C 1041.31,332.779 1047.81,304.113 1054.5,275.5C 1056.07,274.369 1057.74,274.202 1059.5,275C 1065.43,277.143 1071.43,278.977 1077.5,280.5C 1071.06,311.441 1064.06,342.274 1056.5,373C 1056.16,374.03 1055.5,374.53 1054.5,374.5 Z"/></g>
<g><path style="opacity:1" fill="#9fcdf5" d="M 1369.5,260.5 C 1376.06,261.917 1380.23,265.917 1382,272.5C 1382.17,278.5 1382.33,284.5 1382.5,290.5C 1382.5,296.872 1381.83,302.872 1380.5,308.5C 1381.64,296.909 1381.81,285.243 1381,273.5C 1379,267.463 1375.16,263.13 1369.5,260.5 Z"/></g>
<g><path style="opacity:1" fill="#b5d4e8" d="M 994.5,276.5 C 999.152,277.493 1003.82,278.493 1008.5,279.5C 1011.81,281.724 1015.47,283.391 1019.5,284.5C 1019.83,285.5 1020.17,286.5 1020.5,287.5C 1020.36,289.03 1019.69,290.03 1018.5,290.5C 1019.67,288.834 1019.67,287.167 1018.5,285.5C 1010.25,282.864 1002.25,279.864 994.5,276.5 Z"/></g>
<g><path style="opacity:1" fill="#aacde3" d="M 1142.5,274.5 C 1136.82,299.216 1130.82,323.883 1124.5,348.5C 1124.25,349.713 1123.59,350.38 1122.5,350.5C 1128.87,324.998 1135.54,299.665 1142.5,274.5 Z"/></g>
<g><path style="opacity:1" fill="#044bc5" d="M 1262.5,254.5 C 1268.46,253.955 1274.13,254.621 1279.5,256.5C 1279.5,257.167 1279.83,257.5 1280.5,257.5C 1280.92,258.222 1281.58,258.722 1282.5,259C 1311.53,259.191 1340.53,259.691 1369.5,260.5C 1375.16,263.13 1379,267.463 1381,273.5C 1381.81,285.243 1381.64,296.909 1380.5,308.5C 1380.5,309.5 1380.5,310.5 1380.5,311.5C 1376.21,318.125 1370.88,323.791 1364.5,328.5C 1358.92,331.402 1353.59,334.735 1348.5,338.5C 1350.25,340.252 1352.25,341.585 1354.5,342.5C 1356.2,344.192 1358.2,345.525 1360.5,346.5C 1372.71,355.75 1385.37,364.417 1398.5,372.5C 1399.94,373.429 1401.27,374.595 1402.5,376C 1399.94,377.508 1398.27,379.675 1397.5,382.5C 1393.87,385.629 1390.37,388.963 1387,392.5C 1378.94,386.258 1370.77,380.258 1362.5,374.5C 1355.45,368.78 1348.11,363.447 1340.5,358.5C 1337.53,355.546 1334.2,352.879 1330.5,350.5C 1328.85,350.66 1327.51,351.326 1326.5,352.5C 1304.94,365.742 1283.44,379.075 1262,392.5C 1258.02,388.522 1254.02,384.522 1250,380.5C 1249.21,379.255 1248.71,377.922 1248.5,376.5C 1248.5,376.167 1248.5,375.833 1248.5,375.5C 1258.15,370.342 1267.48,364.675 1276.5,358.5C 1280.26,357.103 1283.59,355.103 1286.5,352.5C 1297.45,346.204 1308.12,339.537 1318.5,332.5C 1319.83,331.833 1321.17,331.167 1322.5,330.5C 1326.51,327.83 1330.51,325.164 1334.5,322.5C 1342.28,318.291 1349.62,313.624 1356.5,308.5C 1357.83,308.5 1358.5,307.833 1358.5,306.5C 1359.22,306.082 1359.72,305.416 1360,304.5C 1360.67,296.5 1360.67,288.5 1360,280.5C 1359.5,280 1359,279.5 1358.5,279C 1331.5,278.667 1304.5,278.333 1277.5,278C 1275.08,277.71 1272.75,277.21 1270.5,276.5C 1270.17,276.5 1269.83,276.5 1269.5,276.5C 1266.85,274.337 1264.68,271.671 1263,268.5C 1262.5,263.845 1262.33,259.179 1262.5,254.5 Z"/></g>
<g><path style="opacity:1" fill="#9bccfe" d="M 2151.5,264.5 C 2151.5,278.167 2151.5,291.833 2151.5,305.5C 2158.17,305.5 2164.83,305.5 2171.5,305.5C 2171.5,297.167 2171.5,288.833 2171.5,280.5C 2171.83,280.5 2172.17,280.5 2172.5,280.5C 2172.5,289.167 2172.5,297.833 2172.5,306.5C 2165.17,306.5 2157.83,306.5 2150.5,306.5C 2150.17,292.323 2150.5,278.323 2151.5,264.5 Z"/></g>
<g><path style="opacity:1" fill="#a1cbf7" d="M 2232.5,280.5 C 2233.66,292.326 2233.83,304.326 2233,316.5C 2230.37,321.447 2226.2,324.114 2220.5,324.5C 2223.23,322.671 2226.23,321.005 2229.5,319.5C 2230.58,318.335 2231.42,317.002 2232,315.5C 2232.5,303.838 2232.67,292.171 2232.5,280.5 Z"/></g>
<g><path style="opacity:1" fill="#9cccff" d="M 472.5,272.5 C 481.318,271.507 490.318,271.173 499.5,271.5C 499.5,313.167 499.5,354.833 499.5,396.5C 499.167,396.5 498.833,396.5 498.5,396.5C 498.5,390.5 498.5,384.5 498.5,378.5C 498.5,378.167 498.5,377.833 498.5,377.5C 498.5,342.5 498.5,307.5 498.5,272.5C 489.833,272.5 481.167,272.5 472.5,272.5 Z"/></g>
<g><path style="opacity:1" fill="#9ec6f2" d="M 114.5,276.5 C 113.507,279.144 112.507,281.81 111.5,284.5C 107.906,285.426 104.24,285.759 100.5,285.5C 103.305,284.681 106.305,284.181 109.5,284C 110.907,281.174 112.574,278.674 114.5,276.5 Z"/></g>
<g><path style="opacity:1" fill="#a7cde8" d="M 819.5,274.5 C 821.26,278.547 822.26,282.88 822.5,287.5C 841.672,285.611 860.838,283.611 880,281.5C 889.165,280.87 895.832,284.536 900,292.5C 900.167,299.167 900.333,305.833 900.5,312.5C 900.497,319.535 899.83,326.202 898.5,332.5C 899.646,319.575 899.813,306.575 899,293.5C 895.143,285.753 888.81,282.086 880,282.5C 860.897,284.4 841.897,286.733 823,289.5C 821.059,284.732 819.892,279.732 819.5,274.5 Z"/></g>
<g><path style="opacity:1" fill="#1c508b" d="M 472.5,276.5 C 472.5,276.833 472.5,277.167 472.5,277.5C 471.833,281.167 471.167,284.833 470.5,288.5C 469.911,284.029 470.577,280.029 472.5,276.5 Z"/></g>
<g><path style="opacity:1" fill="#aacce5" d="M 950.5,282.5 C 960.491,286.715 970.491,290.715 980.5,294.5C 971.702,292.179 963.036,289.345 954.5,286C 952.456,285.502 951.122,284.335 950.5,282.5 Z"/></g>
<g><path style="opacity:1" fill="#aacee6" d="M 1142.5,270.5 C 1144.29,265.659 1145.63,260.659 1146.5,255.5C 1138.72,254.889 1131.22,255.556 1124,257.5C 1114.13,294.777 1104.46,332.111 1095,369.5C 1094.62,370.942 1093.79,371.942 1092.5,372.5C 1102.66,333.863 1112.83,295.196 1123,256.5C 1127.08,255.202 1131.41,254.536 1136,254.5C 1140.17,254.667 1144.33,254.833 1148.5,255C 1148.83,255.333 1149.17,255.667 1149.5,256C 1148.89,258.147 1148.22,260.314 1147.5,262.5C 1146.12,265.43 1144.46,268.096 1142.5,270.5 Z"/></g>
<g><path style="opacity:1" fill="#a0ccf7" d="M 382.5,290.5 C 382.5,290.167 382.5,289.833 382.5,289.5C 362.674,288.503 342.674,288.17 322.5,288.5C 320.586,295.75 317.253,302.25 312.5,308C 311.552,308.483 310.552,308.649 309.5,308.5C 315.722,302.903 319.722,295.903 321.5,287.5C 342.511,287.167 363.511,287.5 384.5,288.5C 384.145,289.522 383.478,290.189 382.5,290.5 Z"/></g>
<g><path style="opacity:1" fill="#a9cde8" d="M 608.5,264.5 C 608.5,264.833 608.5,265.167 608.5,265.5C 608.5,265.833 608.5,266.167 608.5,266.5C 608.175,271.599 608.675,276.599 610,281.5C 611.5,284.333 613.667,286.5 616.5,288C 631.939,289.119 647.272,289.952 662.5,290.5C 646.762,290.953 631.096,290.453 615.5,289C 611.51,287.01 609.01,283.843 608,279.5C 607.184,274.316 607.35,269.316 608.5,264.5 Z"/></g>
<g><path style="opacity:1" fill="#164f8f" d="M 684.5,271.5 C 703.5,271.5 722.5,271.5 741.5,271.5C 741.5,277.5 741.5,283.5 741.5,289.5C 722.5,289.5 703.5,289.5 684.5,289.5C 702.993,288.503 721.659,288.17 740.5,288.5C 740.5,283.167 740.5,277.833 740.5,272.5C 721.659,272.83 702.993,272.497 684.5,271.5 Z"/></g>
<g><path style="opacity:1" fill="#054bc5" d="M 816.5,266.5 C 817.167,267.833 817.833,269.167 818.5,270.5C 818.232,272.099 818.566,273.432 819.5,274.5C 819.892,279.732 821.059,284.732 823,289.5C 841.897,286.733 860.897,284.4 880,282.5C 888.81,282.086 895.143,285.753 899,293.5C 899.813,306.575 899.646,319.575 898.5,332.5C 898.5,333.167 898.5,333.833 898.5,334.5C 895.963,338.863 892.296,342.03 887.5,344C 875.639,347.51 863.806,351.01 852,354.5C 848.454,349.245 845.288,343.745 842.5,338C 854.616,334.428 866.782,330.928 879,327.5C 880.109,322.944 880.609,318.278 880.5,313.5C 880.333,309.5 880.167,305.5 880,301.5C 879.617,300.944 879.117,300.611 878.5,300.5C 878.167,300.5 877.833,300.5 877.5,300.5C 877.083,299.876 876.416,299.543 875.5,299.5C 858.781,301.506 842.114,303.84 825.5,306.5C 825.624,307.107 825.957,307.44 826.5,307.5C 826.216,309.415 826.549,311.081 827.5,312.5C 832.628,337.473 837.628,362.473 842.5,387.5C 842.5,389.167 842.5,390.833 842.5,392.5C 836.5,392.5 830.5,392.5 824.5,392.5C 818.66,364.806 812.66,337.14 806.5,309.5C 800.827,308.747 795.16,309.08 789.5,310.5C 781.893,309.889 777.56,305.889 776.5,298.5C 776.5,295.833 776.5,293.167 776.5,290.5C 778.099,290.768 779.432,290.434 780.5,289.5C 782.243,288.914 784.076,288.581 786,288.5C 789.329,289.798 792.662,291.131 796,292.5C 798.484,292.503 800.651,291.837 802.5,290.5C 802.5,289.833 802.5,289.167 802.5,288.5C 801.303,283.374 799.97,278.374 798.5,273.5C 798.5,271.833 798.5,270.167 798.5,268.5C 804.074,266.547 810.074,265.88 816.5,266.5 Z"/></g>
<g><path style="opacity:1" fill="#9accfe" d="M 682.5,252.5 C 682.833,252.5 683.167,252.5 683.5,252.5C 684.49,258.31 684.823,264.31 684.5,270.5C 703.833,270.5 723.167,270.5 742.5,270.5C 742.5,277.167 742.5,283.833 742.5,290.5C 723.167,290.5 703.833,290.5 684.5,290.5C 684.5,290.167 684.5,289.833 684.5,289.5C 703.5,289.5 722.5,289.5 741.5,289.5C 741.5,283.5 741.5,277.5 741.5,271.5C 722.5,271.5 703.5,271.5 684.5,271.5C 683.797,265.267 683.13,258.934 682.5,252.5 Z"/></g>
<g><path style="opacity:1" fill="#14518e" d="M 780.5,289.5 C 779.432,290.434 778.099,290.768 776.5,290.5C 776.5,293.167 776.5,295.833 776.5,298.5C 775.523,295.713 775.19,292.713 775.5,289.5C 777.167,289.5 778.833,289.5 780.5,289.5 Z"/></g>
<g><path style="opacity:1" fill="#accae0" d="M 472.5,277.5 C 469.861,310.865 466.861,344.198 463.5,377.5C 475.167,377.5 486.833,377.5 498.5,377.5C 498.5,377.833 498.5,378.167 498.5,378.5C 486.814,378.168 475.148,378.501 463.5,379.5C 462.58,385.588 459.246,389.755 453.5,392C 446.897,393.274 440.23,393.774 433.5,393.5C 432.372,388.527 431.372,383.527 430.5,378.5C 430.5,377.833 430.5,377.167 430.5,376.5C 431.167,377.833 431.833,379.167 432.5,380.5C 432.848,384.557 433.514,388.557 434.5,392.5C 440.565,392.739 446.565,392.239 452.5,391C 455.562,389.939 458.062,388.106 460,385.5C 462.88,373.71 464.38,361.71 464.5,349.5C 465.23,345.939 465.897,342.273 466.5,338.5C 467.833,321.833 469.167,305.166 470.5,288.5C 471.167,284.833 471.833,281.167 472.5,277.5 Z"/></g>
<g><path style="opacity:1" fill="#acccde" d="M 1802.5,300.5 C 1799.44,297.634 1795.77,295.801 1791.5,295C 1767.5,294.5 1743.5,294.333 1719.5,294.5C 1719.5,303.167 1719.5,311.833 1719.5,320.5C 1725.83,320.5 1732.17,320.5 1738.5,320.5C 1738.5,316.833 1738.5,313.167 1738.5,309.5C 1754.01,309.17 1769.34,309.504 1784.5,310.5C 1784.17,310.5 1783.83,310.5 1783.5,310.5C 1768.83,310.5 1754.17,310.5 1739.5,310.5C 1739.5,314.167 1739.5,317.833 1739.5,321.5C 1732.5,321.5 1725.5,321.5 1718.5,321.5C 1718.5,312.167 1718.5,302.833 1718.5,293.5C 1743.17,293.333 1767.84,293.5 1792.5,294C 1795.38,294.438 1798.04,295.438 1800.5,297C 1801.82,297.816 1802.49,298.983 1802.5,300.5 Z"/></g>
<g><path style="opacity:1" fill="#184f8f" d="M 146.5,294.5 C 159.544,293.853 172.211,294.52 184.5,296.5C 184.167,296.5 183.833,296.5 183.5,296.5C 171.167,295.833 158.833,295.167 146.5,294.5 Z"/></g>
<g><path style="opacity:1" fill="#044bc5" d="M 1170.5,256.5 C 1178.44,255.919 1186.11,256.586 1193.5,258.5C 1196.56,270.024 1200.23,281.357 1204.5,292.5C 1204.5,293.167 1204.5,293.833 1204.5,294.5C 1208.33,307.308 1212.33,319.974 1216.5,332.5C 1216.5,333.167 1216.5,333.833 1216.5,334.5C 1220.33,347.308 1224.33,359.974 1228.5,372.5C 1228.5,373.167 1228.5,373.833 1228.5,374.5C 1230.03,379.093 1231.36,383.76 1232.5,388.5C 1224.47,388.831 1216.47,388.498 1208.5,387.5C 1206.63,381.007 1204.63,374.673 1202.5,368.5C 1201.37,363.112 1200.04,357.779 1198.5,352.5C 1193.34,334.361 1188.01,316.361 1182.5,298.5C 1182.5,297.833 1182.5,297.167 1182.5,296.5C 1178.7,283.107 1174.7,269.774 1170.5,256.5 Z"/></g>
<g><path style="opacity:1" fill="#b1ccd9" d="M 1574.5,294.5 C 1573.51,284.681 1573.17,274.681 1573.5,264.5C 1567.17,264.5 1560.83,264.5 1554.5,264.5C 1554.5,274.5 1554.5,284.5 1554.5,294.5C 1547.83,294.5 1541.17,294.5 1534.5,294.5C 1534.5,299.5 1534.5,304.5 1534.5,309.5C 1541.17,309.5 1547.83,309.5 1554.5,309.5C 1554.5,330.833 1554.5,352.167 1554.5,373.5C 1554.5,373.833 1554.5,374.167 1554.5,374.5C 1553.5,353.34 1553.17,332.007 1553.5,310.5C 1546.83,310.5 1540.17,310.5 1533.5,310.5C 1533.5,304.833 1533.5,299.167 1533.5,293.5C 1540.17,293.5 1546.83,293.5 1553.5,293.5C 1553.5,283.5 1553.5,273.5 1553.5,263.5C 1560.5,263.5 1567.5,263.5 1574.5,263.5C 1574.5,273.833 1574.5,284.167 1574.5,294.5 Z"/></g>
<g><path style="opacity:1" fill="#9bccff" d="M 258.5,295.5 C 258.5,295.833 258.5,296.167 258.5,296.5C 241.167,296.5 223.833,296.5 206.5,296.5C 206.5,297.5 206.5,298.5 206.5,299.5C 206.5,299.833 206.5,300.167 206.5,300.5C 205.549,299.081 205.216,297.415 205.5,295.5C 223.167,295.5 240.833,295.5 258.5,295.5 Z"/></g>
<g><path style="opacity:1" fill="#044bc5" d="M 142.5,250.5 C 138.963,262.443 135.63,274.443 132.5,286.5C 131.209,288.949 130.209,291.616 129.5,294.5C 131.045,295.452 132.712,295.785 134.5,295.5C 134.5,329.167 134.5,362.833 134.5,396.5C 127.5,396.5 120.5,396.5 113.5,396.5C 113.832,364.996 113.498,333.662 112.5,302.5C 109.5,302.5 106.5,302.5 103.5,302.5C 102.34,296.861 101.34,291.195 100.5,285.5C 104.24,285.759 107.906,285.426 111.5,284.5C 112.507,281.81 113.507,279.144 114.5,276.5C 114.5,275.833 114.5,275.167 114.5,274.5C 118.406,263.439 121.739,252.105 124.5,240.5C 131.532,240.17 138.532,240.503 145.5,241.5C 144.341,244.481 143.341,247.481 142.5,250.5 Z"/></g>
<g><path style="opacity:1" fill="#044bc5" d="M 1611.5,294.5 C 1641.83,294.5 1672.17,294.5 1702.5,294.5C 1702.67,307.504 1702.5,320.504 1702,333.5C 1700.75,336.907 1698.91,339.907 1696.5,342.5C 1693.76,344.196 1690.76,345.362 1687.5,346C 1668.5,346.5 1649.5,346.667 1630.5,346.5C 1629.51,355.986 1629.17,365.652 1629.5,375.5C 1645.84,375.667 1662.17,375.5 1678.5,375C 1680.94,374.226 1682.77,372.726 1684,370.5C 1684.5,367.183 1684.67,363.85 1684.5,360.5C 1690.5,360.5 1696.5,360.5 1702.5,360.5C 1702.5,364.833 1702.5,369.167 1702.5,373.5C 1702.5,373.833 1702.5,374.167 1702.5,374.5C 1702.5,375.5 1702.5,376.5 1702.5,377.5C 1698.88,384.931 1692.88,389.097 1684.5,390C 1660.17,390.5 1635.84,390.667 1611.5,390.5C 1611.5,358.5 1611.5,326.5 1611.5,294.5 Z"/></g>
<g><path style="opacity:1" fill="#b8d2de" d="M 1822.5,294.5 C 1842.33,293.338 1862.33,293.171 1882.5,294C 1885.77,295.137 1889.1,295.97 1892.5,296.5C 1895.9,295.97 1899.23,295.137 1902.5,294C 1914.83,293.333 1927.17,293.333 1939.5,294C 1941.88,294.511 1944.21,295.178 1946.5,296C 1947.76,296.417 1948.42,297.25 1948.5,298.5C 1945.37,296.846 1942.04,295.679 1938.5,295C 1926.83,294.333 1915.17,294.333 1903.5,295C 1899.69,295.823 1896.19,297.323 1893,299.5C 1889.32,297.578 1885.49,296.078 1881.5,295C 1862.17,294.5 1842.84,294.333 1823.5,294.5C 1823.17,294.5 1822.83,294.5 1822.5,294.5 Z"/></g>
<g><path style="opacity:1" fill="#b4cdde" d="M 132.5,286.5 C 132.167,289.167 131.833,291.833 131.5,294.5C 132.833,294.5 134.167,294.5 135.5,294.5C 135.5,321.833 135.5,349.167 135.5,376.5C 135.5,376.833 135.5,377.167 135.5,377.5C 135.5,384.167 135.5,390.833 135.5,397.5C 127.833,397.5 120.167,397.5 112.5,397.5C 112.5,390.5 112.5,383.5 112.5,376.5C 93.1667,376.5 73.8333,376.5 54.5,376.5C 73.6595,375.503 92.9928,375.17 112.5,375.5C 112.5,351.167 112.5,326.833 112.5,302.5C 113.498,333.662 113.832,364.996 113.5,396.5C 120.5,396.5 127.5,396.5 134.5,396.5C 134.5,362.833 134.5,329.167 134.5,295.5C 132.712,295.785 131.045,295.452 129.5,294.5C 130.209,291.616 131.209,288.949 132.5,286.5 Z"/></g>
<g><path style="opacity:1" fill="#135191" d="M 662.5,295.5 C 662.5,295.167 662.5,294.833 662.5,294.5C 664.467,302.097 665.134,310.097 664.5,318.5C 663.833,310.833 663.167,303.167 662.5,295.5 Z"/></g>
<g><path style="opacity:1" fill="#adcee3" d="M 1018.5,291.5 C 1017.51,296.296 1016.01,300.963 1014,305.5C 1013.44,306.022 1012.77,306.355 1012,306.5C 1003.62,303.263 995.121,300.429 986.5,298C 984.681,297.26 983.348,296.093 982.5,294.5C 992.586,298.64 1002.92,301.973 1013.5,304.5C 1014.6,299.868 1016.26,295.534 1018.5,291.5 Z"/></g>
<g><path style="opacity:1" fill="#054bc5" d="M 1142.5,270.5 C 1142.5,271.833 1142.5,273.167 1142.5,274.5C 1135.54,299.665 1128.87,324.998 1122.5,350.5C 1122.5,351.167 1122.5,351.833 1122.5,352.5C 1120.05,360.295 1117.88,368.295 1116,376.5C 1114.81,384.354 1110.31,388.854 1102.5,390C 1097.18,390.499 1091.84,390.666 1086.5,390.5C 1085.37,384.859 1084.37,379.192 1083.5,373.5C 1086.71,373.81 1089.71,373.477 1092.5,372.5C 1093.79,371.942 1094.62,370.942 1095,369.5C 1104.46,332.111 1114.13,294.777 1124,257.5C 1131.22,255.556 1138.72,254.889 1146.5,255.5C 1145.63,260.659 1144.29,265.659 1142.5,270.5 Z"/></g>
<g><path style="opacity:1" fill="#9ccbf6" d="M 1610.5,294.5 C 1610.83,294.5 1611.17,294.5 1611.5,294.5C 1611.5,326.5 1611.5,358.5 1611.5,390.5C 1611.17,390.5 1610.83,390.5 1610.5,390.5C 1610.5,388.167 1610.5,385.833 1610.5,383.5C 1607.17,383.5 1603.83,383.5 1600.5,383.5C 1600.5,386.167 1600.5,388.833 1600.5,391.5C 1590.83,391.666 1581.16,391.5 1571.5,391C 1565.63,389.909 1560.96,387.076 1557.5,382.5C 1557.5,381.833 1557.17,381.5 1556.5,381.5C 1555.54,379.254 1554.88,376.921 1554.5,374.5C 1554.5,374.167 1554.5,373.833 1554.5,373.5C 1557.34,382.333 1563.34,387.666 1572.5,389.5C 1581.14,390.498 1589.81,390.831 1598.5,390.5C 1599.49,385.695 1599.82,380.695 1599.5,375.5C 1593.17,375.5 1586.83,375.5 1580.5,375.5C 1577.68,374.764 1575.68,373.098 1574.5,370.5C 1576.34,371.811 1578.34,372.978 1580.5,374C 1587.16,374.5 1593.83,374.666 1600.5,374.5C 1600.5,377.167 1600.5,379.833 1600.5,382.5C 1603.83,382.5 1607.17,382.5 1610.5,382.5C 1610.5,353.167 1610.5,323.833 1610.5,294.5 Z"/></g>
<g><path style="opacity:1" fill="#b5cbce" d="M 1610.5,294.5 C 1641.33,293.502 1672.33,293.169 1703.5,293.5C 1703.67,307.171 1703.5,320.837 1703,334.5C 1702.37,338.609 1700.21,341.276 1696.5,342.5C 1698.91,339.907 1700.75,336.907 1702,333.5C 1702.5,320.504 1702.67,307.504 1702.5,294.5C 1672.17,294.5 1641.83,294.5 1611.5,294.5C 1611.17,294.5 1610.83,294.5 1610.5,294.5 Z"/></g>
<g><path style="opacity:1" fill="#accbe4" d="M 877.5,300.5 C 860.315,302.438 843.315,304.772 826.5,307.5C 825.957,307.44 825.624,307.107 825.5,306.5C 842.114,303.84 858.781,301.506 875.5,299.5C 876.416,299.543 877.083,299.876 877.5,300.5 Z"/></g>
<g><path style="opacity:1" fill="#044bc5" d="M 1574.5,294.5 C 1582.5,294.5 1590.5,294.5 1598.5,294.5C 1598.5,299.167 1598.5,303.833 1598.5,308.5C 1590.32,308.174 1582.32,308.508 1574.5,309.5C 1573.17,329.5 1573.17,349.5 1574.5,369.5C 1574.5,369.833 1574.5,370.167 1574.5,370.5C 1575.68,373.098 1577.68,374.764 1580.5,375.5C 1586.31,376.49 1592.31,376.823 1598.5,376.5C 1598.5,381.167 1598.5,385.833 1598.5,390.5C 1589.81,390.831 1581.14,390.498 1572.5,389.5C 1563.34,387.666 1557.34,382.333 1554.5,373.5C 1554.5,352.167 1554.5,330.833 1554.5,309.5C 1547.83,309.5 1541.17,309.5 1534.5,309.5C 1534.5,304.5 1534.5,299.5 1534.5,294.5C 1541.17,294.5 1547.83,294.5 1554.5,294.5C 1554.5,284.5 1554.5,274.5 1554.5,264.5C 1560.83,264.5 1567.17,264.5 1573.5,264.5C 1573.17,274.681 1573.51,284.681 1574.5,294.5 Z"/></g>
<g><path style="opacity:1" fill="#9bccff" d="M 684.5,299.5 C 684.5,299.167 684.5,298.833 684.5,298.5C 686.463,305.424 687.13,312.757 686.5,320.5C 686.5,320.833 686.5,321.167 686.5,321.5C 685.833,314.167 685.167,306.833 684.5,299.5 Z"/></g>
<g><path style="opacity:1" fill="#184f8f" d="M 2151.5,264.5 C 2151.83,264.5 2152.17,264.5 2152.5,264.5C 2152.5,277.833 2152.5,291.167 2152.5,304.5C 2158.5,304.5 2164.5,304.5 2170.5,304.5C 2170.17,296.316 2170.51,288.316 2171.5,280.5C 2171.5,288.833 2171.5,297.167 2171.5,305.5C 2164.83,305.5 2158.17,305.5 2151.5,305.5C 2151.5,291.833 2151.5,278.167 2151.5,264.5 Z"/></g>
<g><path style="opacity:1" fill="#aacce5" d="M 449.5,292.5 C 447.773,312.828 446.107,333.161 444.5,353.5C 443.77,357.061 443.103,360.727 442.5,364.5C 442.966,368.162 442.299,371.495 440.5,374.5C 437.272,375.414 433.939,375.747 430.5,375.5C 430.5,375.167 430.5,374.833 430.5,374.5C 434.603,375.231 438.103,374.231 441,371.5C 443.574,344.989 446.408,318.655 449.5,292.5 Z"/></g>
<g><path style="opacity:1" fill="#19508d" d="M 684.5,299.5 C 685.167,306.833 685.833,314.167 686.5,321.5C 686.5,321.833 686.5,322.167 686.5,322.5C 684.535,315.24 683.868,307.573 684.5,299.5 Z"/></g>
<g><path style="opacity:1" fill="#19508c" d="M 1598.5,294.5 C 1598.83,294.5 1599.17,294.5 1599.5,294.5C 1599.5,299.5 1599.5,304.5 1599.5,309.5C 1591.17,309.5 1582.83,309.5 1574.5,309.5C 1582.32,308.508 1590.32,308.174 1598.5,308.5C 1598.5,303.833 1598.5,299.167 1598.5,294.5 Z"/></g>
<g><path style="opacity:1" fill="#b0ccd9" d="M 1682.5,330.5 C 1683.39,323.543 1683.72,316.543 1683.5,309.5C 1665.83,309.5 1648.17,309.5 1630.5,309.5C 1630.5,316.833 1630.5,324.167 1630.5,331.5C 1630.5,331.833 1630.5,332.167 1630.5,332.5C 1629.51,324.684 1629.17,316.684 1629.5,308.5C 1647.83,308.5 1666.17,308.5 1684.5,308.5C 1684.67,315.175 1684.5,321.842 1684,328.5C 1683.72,329.416 1683.22,330.082 1682.5,330.5 Z"/></g>
<g><path style="opacity:1" fill="#b0ccd8" d="M 308.5,270.5 C 305.374,278.086 301.707,285.419 297.5,292.5C 292.025,294.346 286.358,295.013 280.5,294.5C 281.5,299.833 282.5,305.167 283.5,310.5C 290.841,310.666 298.174,310.5 305.5,310C 306.527,309.487 307.527,308.987 308.5,308.5C 308.423,309.75 307.756,310.583 306.5,311C 298.507,311.5 290.507,311.666 282.5,311.5C 281.18,305.553 280.18,299.553 279.5,293.5C 285.358,294.013 291.025,293.346 296.5,291.5C 300.361,285.112 303.694,278.446 306.5,271.5C 306.957,270.702 307.624,270.369 308.5,270.5 Z"/></g>
<g><path style="opacity:1" fill="#fdfefe" d="M 1682.5,330.5 C 1665.19,331.444 1647.86,331.777 1630.5,331.5C 1630.5,324.167 1630.5,316.833 1630.5,309.5C 1648.17,309.5 1665.83,309.5 1683.5,309.5C 1683.72,316.543 1683.39,323.543 1682.5,330.5 Z"/></g>
<g><path style="opacity:1" fill="#a0ccf6" d="M 1948.5,298.5 C 1953.89,300.066 1957.06,303.733 1958,309.5C 1958.5,334.498 1958.67,359.498 1958.5,384.5C 1958.5,386.833 1958.5,389.167 1958.5,391.5C 1951.5,391.5 1944.5,391.5 1937.5,391.5C 1937.5,389.167 1937.5,386.833 1937.5,384.5C 1937.83,384.5 1938.17,384.5 1938.5,384.5C 1938.5,386.5 1938.5,388.5 1938.5,390.5C 1944.83,390.5 1951.17,390.5 1957.5,390.5C 1957.67,363.831 1957.5,337.165 1957,310.5C 1955.85,305.204 1953.02,301.204 1948.5,298.5 Z"/></g>
<g><path style="opacity:1" fill="#9accfe" d="M 1599.5,294.5 C 1600.49,299.64 1600.82,304.974 1600.5,310.5C 1591.83,310.5 1583.17,310.5 1574.5,310.5C 1574.5,330.167 1574.5,349.833 1574.5,369.5C 1573.17,349.5 1573.17,329.5 1574.5,309.5C 1582.83,309.5 1591.17,309.5 1599.5,309.5C 1599.5,304.5 1599.5,299.5 1599.5,294.5 Z"/></g>
<g><path style="opacity:1" fill="#b5ccd0" d="M 1802.5,300.5 C 1803.75,300.577 1804.58,301.244 1805,302.5C 1805.92,305.101 1806.59,307.768 1807,310.5C 1807.5,330.497 1807.67,350.497 1807.5,370.5C 1807.17,370.5 1806.83,370.5 1806.5,370.5C 1806.67,350.831 1806.5,331.164 1806,311.5C 1805.53,307.578 1804.36,303.912 1802.5,300.5 Z"/></g>
<g><path style="opacity:1" fill="#044bc5" d="M 1823.5,294.5 C 1842.84,294.333 1862.17,294.5 1881.5,295C 1885.49,296.078 1889.32,297.578 1893,299.5C 1896.19,297.323 1899.69,295.823 1903.5,295C 1915.17,294.333 1926.83,294.333 1938.5,295C 1942.04,295.679 1945.37,296.846 1948.5,298.5C 1953.02,301.204 1955.85,305.204 1957,310.5C 1957.5,337.165 1957.67,363.831 1957.5,390.5C 1951.17,390.5 1944.83,390.5 1938.5,390.5C 1938.5,388.5 1938.5,386.5 1938.5,384.5C 1938.67,361.164 1938.5,337.831 1938,314.5C 1936.46,312.622 1934.62,311.122 1932.5,310C 1924.17,309.333 1915.83,309.333 1907.5,310C 1904.51,310.406 1902.34,311.906 1901,314.5C 1900.5,339.831 1900.33,365.164 1900.5,390.5C 1893.83,390.5 1887.17,390.5 1880.5,390.5C 1880.67,365.164 1880.5,339.831 1880,314.5C 1879.72,313.584 1879.22,312.918 1878.5,312.5C 1877.4,311.442 1876.07,310.608 1874.5,310C 1863.66,309.175 1852.99,309.341 1842.5,310.5C 1842.5,337.167 1842.5,363.833 1842.5,390.5C 1836.17,390.5 1829.83,390.5 1823.5,390.5C 1823.5,358.5 1823.5,326.5 1823.5,294.5 Z"/></g>
<g><path style="opacity:1" fill="#9ccdfa" d="M 1842.5,310.5 C 1852.99,309.341 1863.66,309.175 1874.5,310C 1876.07,310.608 1877.4,311.442 1878.5,312.5C 1866.98,310.614 1855.31,309.947 1843.5,310.5C 1843.17,310.5 1842.83,310.5 1842.5,310.5 Z"/></g>
<g><path style="opacity:1" fill="#a7cbe3" d="M 1356.5,308.5 C 1349.62,313.624 1342.28,318.291 1334.5,322.5C 1341.08,316.862 1348.42,312.196 1356.5,308.5 Z"/></g>
<g><path style="opacity:1" fill="#b4cdcc" d="M 2114.5,332.5 C 2114.5,332.833 2114.5,333.167 2114.5,333.5C 2098.17,333.5 2081.83,333.5 2065.5,333.5C 2065.5,327.5 2065.5,321.5 2065.5,315.5C 2080.17,315.5 2094.83,315.5 2109.5,315.5C 2109.5,304.167 2109.5,292.833 2109.5,281.5C 2090.17,281.5 2070.83,281.5 2051.5,281.5C 2051.82,286.695 2051.49,291.695 2050.5,296.5C 2050.5,296.167 2050.5,295.833 2050.5,295.5C 2050.5,290.5 2050.5,285.5 2050.5,280.5C 2070.5,280.5 2090.5,280.5 2110.5,280.5C 2110.5,292.5 2110.5,304.5 2110.5,316.5C 2095.83,316.5 2081.17,316.5 2066.5,316.5C 2066.5,321.833 2066.5,327.167 2066.5,332.5C 2082.5,332.5 2098.5,332.5 2114.5,332.5 Z"/></g>
<g><path style="opacity:1" fill="#accce4" d="M 184.5,301.5 C 187.406,314.36 190.072,327.36 192.5,340.5C 191.307,340.03 190.64,339.03 190.5,337.5C 188.11,325.552 186.11,313.552 184.5,301.5 Z"/></g>
<g><path style="opacity:1" fill="#b0cedf" d="M 2129.5,264.5 C 2129.83,264.5 2130.17,264.5 2130.5,264.5C 2130.5,281.5 2130.5,298.5 2130.5,315.5C 2132.17,315.5 2133.83,315.5 2135.5,315.5C 2135.92,336.536 2135.42,357.536 2134,378.5C 2133.62,379.056 2133.12,379.389 2132.5,379.5C 2132.5,379.167 2132.5,378.833 2132.5,378.5C 2132.93,375.834 2133.43,373.168 2134,370.5C 2134.5,352.503 2134.67,334.503 2134.5,316.5C 2132.83,316.5 2131.17,316.5 2129.5,316.5C 2129.5,299.167 2129.5,281.833 2129.5,264.5 Z"/></g>
<g><path style="opacity:1" fill="#a8cde2" d="M 1204.5,294.5 C 1205.93,294.881 1206.76,295.881 1207,297.5C 1210.69,309.057 1213.85,320.723 1216.5,332.5C 1212.33,319.974 1208.33,307.308 1204.5,294.5 Z"/></g>
<g><path style="opacity:1" fill="#a2c9e3" d="M 1334.5,322.5 C 1330.51,325.164 1326.51,327.83 1322.5,330.5C 1322.41,329.504 1322.75,328.671 1323.5,328C 1326.95,325.607 1330.62,323.774 1334.5,322.5 Z"/></g>
<g><path style="opacity:1" fill="#b3cad0" d="M 1938.5,384.5 C 1938.17,384.5 1937.83,384.5 1937.5,384.5C 1925.5,384.5 1913.5,384.5 1901.5,384.5C 1901.5,386.833 1901.5,389.167 1901.5,391.5C 1894.17,391.5 1886.83,391.5 1879.5,391.5C 1879.5,389.167 1879.5,386.833 1879.5,384.5C 1867.5,384.5 1855.5,384.5 1843.5,384.5C 1843.5,386.833 1843.5,389.167 1843.5,391.5C 1836.31,391.825 1829.31,391.491 1822.5,390.5C 1822.83,390.5 1823.17,390.5 1823.5,390.5C 1829.83,390.5 1836.17,390.5 1842.5,390.5C 1842.5,363.833 1842.5,337.167 1842.5,310.5C 1842.83,310.5 1843.17,310.5 1843.5,310.5C 1843.5,334.833 1843.5,359.167 1843.5,383.5C 1855.5,383.5 1867.5,383.5 1879.5,383.5C 1879.8,359.801 1879.47,336.134 1878.5,312.5C 1879.22,312.918 1879.72,313.584 1880,314.5C 1880.5,339.831 1880.67,365.164 1880.5,390.5C 1887.17,390.5 1893.83,390.5 1900.5,390.5C 1900.33,365.164 1900.5,339.831 1901,314.5C 1902.34,311.906 1904.51,310.406 1907.5,310C 1915.83,309.333 1924.17,309.333 1932.5,310C 1934.62,311.122 1936.46,312.622 1938,314.5C 1938.5,337.831 1938.67,361.164 1938.5,384.5 Z"/></g>
<g><path style="opacity:1" fill="#fdfefe" d="M 1908.5,310.5 C 1916.17,310.334 1923.84,310.5 1931.5,311C 1934,312.167 1935.83,314 1937,316.5C 1937.5,338.831 1937.67,361.164 1937.5,383.5C 1925.5,383.5 1913.5,383.5 1901.5,383.5C 1901.33,360.831 1901.5,338.164 1902,315.5C 1903.78,313.206 1905.95,311.539 1908.5,310.5 Z"/></g>
<g><path style="opacity:1" fill="#fdfefe" d="M 1843.5,310.5 C 1855.31,309.947 1866.98,310.614 1878.5,312.5C 1879.47,336.134 1879.8,359.801 1879.5,383.5C 1867.5,383.5 1855.5,383.5 1843.5,383.5C 1843.5,359.167 1843.5,334.833 1843.5,310.5 Z"/></g>
<g><path style="opacity:1" fill="#b0ccd9" d="M 662.5,295.5 C 663.167,303.167 663.833,310.833 664.5,318.5C 664.5,321.167 664.5,323.833 664.5,326.5C 643.5,326.5 622.5,326.5 601.5,326.5C 601.5,332.5 601.5,338.5 601.5,344.5C 622.5,344.5 643.5,344.5 664.5,344.5C 664.5,344.833 664.5,345.167 664.5,345.5C 643.167,345.5 621.833,345.5 600.5,345.5C 600.5,338.833 600.5,332.167 600.5,325.5C 621.5,325.5 642.5,325.5 663.5,325.5C 662.668,315.524 662.334,305.524 662.5,295.5 Z"/></g>
<g><path style="opacity:1" fill="#9dc3e3" d="M 1380.5,311.5 C 1378.24,320.095 1372.9,325.762 1364.5,328.5C 1370.88,323.791 1376.21,318.125 1380.5,311.5 Z"/></g>
<g><path style="opacity:1" fill="#accddf" d="M 382.5,289.5 C 382.5,289.833 382.5,290.167 382.5,290.5C 374.596,307.976 365.929,324.976 356.5,341.5C 364.638,323.891 373.304,306.558 382.5,289.5 Z"/></g>
<g><path style="opacity:1" fill="#034bc6" d="M 2129.5,264.5 C 2129.5,281.833 2129.5,299.167 2129.5,316.5C 2131.17,316.5 2132.83,316.5 2134.5,316.5C 2134.67,334.503 2134.5,352.503 2134,370.5C 2133.43,373.168 2132.93,375.834 2132.5,378.5C 2128.63,384.851 2122.96,388.684 2115.5,390C 2087.17,390.5 2058.84,390.667 2030.5,390.5C 2030.5,379.167 2030.5,367.833 2030.5,356.5C 2036.5,356.5 2042.5,356.5 2048.5,356.5C 2048.5,362.5 2048.5,368.5 2048.5,374.5C 2069.59,374.977 2090.59,374.477 2111.5,373C 2113.77,371.442 2114.93,369.276 2115,366.5C 2115.83,354.992 2115.66,343.659 2114.5,332.5C 2098.5,332.5 2082.5,332.5 2066.5,332.5C 2066.5,327.167 2066.5,321.833 2066.5,316.5C 2081.17,316.5 2095.83,316.5 2110.5,316.5C 2110.5,304.5 2110.5,292.5 2110.5,280.5C 2090.5,280.5 2070.5,280.5 2050.5,280.5C 2050.5,285.5 2050.5,290.5 2050.5,295.5C 2044.5,295.5 2038.5,295.5 2032.5,295.5C 2032.5,285.167 2032.5,274.833 2032.5,264.5C 2064.83,264.5 2097.17,264.5 2129.5,264.5 Z"/></g>
<g><path style="opacity:1" fill="#b3cdcd" d="M 1682.5,330.5 C 1681.74,331.268 1680.74,331.768 1679.5,332C 1663.17,332.5 1646.84,332.667 1630.5,332.5C 1630.5,332.167 1630.5,331.833 1630.5,331.5C 1647.86,331.777 1665.19,331.444 1682.5,330.5 Z"/></g>
<g><path style="opacity:1" fill="#b4cdcc" d="M 1783.5,310.5 C 1783.83,310.5 1784.17,310.5 1784.5,310.5C 1786.02,310.511 1787.18,311.177 1788,312.5C 1788.5,319.158 1788.67,325.825 1788.5,332.5C 1765.17,332.5 1741.83,332.5 1718.5,332.5C 1718.5,349.833 1718.5,367.167 1718.5,384.5C 1718.17,384.5 1717.83,384.5 1717.5,384.5C 1717.5,383.833 1717.17,383.5 1716.5,383.5C 1716.5,383.167 1716.5,382.833 1716.5,382.5C 1717.5,365.675 1717.83,348.675 1717.5,331.5C 1740.83,331.5 1764.17,331.5 1787.5,331.5C 1787.67,325.491 1787.5,319.491 1787,313.5C 1785.85,312.364 1784.69,311.364 1783.5,310.5 Z"/></g>
<g><path style="opacity:1" fill="#aacce3" d="M 2218.5,324.5 C 2207.31,328.006 2195.97,331.34 2184.5,334.5C 2186.27,332.603 2188.6,331.436 2191.5,331C 2200.41,328.356 2209.41,326.189 2218.5,324.5 Z"/></g>
<g><path style="opacity:1" fill="#a7cade" d="M 1364.5,328.5 C 1360.48,332.035 1356.15,335.369 1351.5,338.5C 1352.83,339.642 1353.83,340.976 1354.5,342.5C 1352.25,341.585 1350.25,340.252 1348.5,338.5C 1353.59,334.735 1358.92,331.402 1364.5,328.5 Z"/></g>
<g><path style="opacity:1" fill="#054bc5" d="M 2152.5,264.5 C 2186.17,264.5 2219.83,264.5 2253.5,264.5C 2253.82,283.909 2253.49,303.243 2252.5,322.5C 2250.95,328.042 2247.62,332.042 2242.5,334.5C 2218.91,341.481 2195.25,348.315 2171.5,355C 2170.52,361.41 2170.19,367.91 2170.5,374.5C 2198.17,374.5 2225.83,374.5 2253.5,374.5C 2253.5,379.833 2253.5,385.167 2253.5,390.5C 2219.83,390.5 2186.17,390.5 2152.5,390.5C 2151.9,374.329 2152.57,358.329 2154.5,342.5C 2164.02,340.123 2173.36,337.456 2182.5,334.5C 2183.17,334.5 2183.83,334.5 2184.5,334.5C 2195.97,331.34 2207.31,328.006 2218.5,324.5C 2219.17,324.5 2219.83,324.5 2220.5,324.5C 2226.2,324.114 2230.37,321.447 2233,316.5C 2233.83,304.326 2233.66,292.326 2232.5,280.5C 2212.5,280.5 2192.5,280.5 2172.5,280.5C 2172.17,280.5 2171.83,280.5 2171.5,280.5C 2170.51,288.316 2170.17,296.316 2170.5,304.5C 2164.5,304.5 2158.5,304.5 2152.5,304.5C 2152.5,291.167 2152.5,277.833 2152.5,264.5 Z"/></g>
<g><path style="opacity:1" fill="#aecbd8" d="M 316.5,336.5 C 315.636,335.312 314.636,334.145 313.5,333C 306.5,332.333 299.5,332.333 292.5,333C 295.402,337.393 298.069,341.893 300.5,346.5C 298.132,344.157 295.965,341.491 294,338.5C 292.589,336.35 291.755,334.016 291.5,331.5C 299.174,331.334 306.841,331.5 314.5,332C 316.037,333.11 316.703,334.61 316.5,336.5 Z"/></g>
<g><path style="opacity:1" fill="#a9cce7" d="M 1182.5,298.5 C 1188.01,316.361 1193.34,334.361 1198.5,352.5C 1196.6,350.731 1195.44,348.398 1195,345.5C 1190.36,329.929 1186.19,314.263 1182.5,298.5 Z"/></g>
<g><path style="opacity:1" fill="#a6cbe1" d="M 1318.5,332.5 C 1308.12,339.537 1297.45,346.204 1286.5,352.5C 1286.94,350.926 1287.94,349.759 1289.5,349C 1298.94,342.951 1308.61,337.451 1318.5,332.5 Z"/></g>
<g><path style="opacity:1" fill="#aacad9" d="M 396.5,306.5 C 389.111,323.779 380.777,340.612 371.5,357C 382.008,357.17 392.341,357.67 402.5,358.5C 402.167,358.5 401.833,358.5 401.5,358.5C 391.167,358.5 380.833,358.5 370.5,358.5C 378.638,340.891 387.304,323.558 396.5,306.5 Z"/></g>
<g><path style="opacity:1" fill="#a9cbe6" d="M 1216.5,334.5 C 1217.59,334.62 1218.25,335.287 1218.5,336.5C 1222.45,348.351 1225.78,360.351 1228.5,372.5C 1224.33,359.974 1220.33,347.308 1216.5,334.5 Z"/></g>
<g><path style="opacity:1" fill="#1f4f8e" d="M 466.5,338.5 C 465.897,342.273 465.23,345.939 464.5,349.5C 463.92,345.351 464.586,341.684 466.5,338.5 Z"/></g>
<g><path style="opacity:1" fill="#b5cdcd" d="M 686.5,320.5 C 687.451,321.919 687.784,323.585 687.5,325.5C 708.167,325.5 728.833,325.5 749.5,325.5C 749.5,332.167 749.5,338.833 749.5,345.5C 729.167,345.5 708.833,345.5 688.5,345.5C 688.5,345.167 688.5,344.833 688.5,344.5C 708.5,344.5 728.5,344.5 748.5,344.5C 748.5,338.5 748.5,332.5 748.5,326.5C 727.833,326.5 707.167,326.5 686.5,326.5C 686.5,325.167 686.5,323.833 686.5,322.5C 686.5,322.167 686.5,321.833 686.5,321.5C 686.5,321.167 686.5,320.833 686.5,320.5 Z"/></g>
<g><path style="opacity:1" fill="#044bc6" d="M 1802.5,300.5 C 1804.36,303.912 1805.53,307.578 1806,311.5C 1806.5,331.164 1806.67,350.831 1806.5,370.5C 1807.54,373.706 1809.71,375.706 1813,376.5C 1813.5,381.155 1813.67,385.821 1813.5,390.5C 1806.41,391.471 1800.41,389.471 1795.5,384.5C 1792.38,387.393 1788.71,389.226 1784.5,390C 1762.5,390.5 1740.5,390.667 1718.5,390.5C 1718.5,388.5 1718.5,386.5 1718.5,384.5C 1718.5,367.167 1718.5,349.833 1718.5,332.5C 1741.83,332.5 1765.17,332.5 1788.5,332.5C 1788.67,325.825 1788.5,319.158 1788,312.5C 1787.18,311.177 1786.02,310.511 1784.5,310.5C 1769.34,309.504 1754.01,309.17 1738.5,309.5C 1738.5,313.167 1738.5,316.833 1738.5,320.5C 1732.17,320.5 1725.83,320.5 1719.5,320.5C 1719.5,311.833 1719.5,303.167 1719.5,294.5C 1743.5,294.333 1767.5,294.5 1791.5,295C 1795.77,295.801 1799.44,297.634 1802.5,300.5 Z"/></g>
<g><path style="opacity:1" fill="#b5cbd2" d="M 1696.5,342.5 C 1694.7,345.241 1692.03,346.741 1688.5,347C 1669.17,347.5 1649.84,347.667 1630.5,347.5C 1630.5,347.167 1630.5,346.833 1630.5,346.5C 1649.5,346.667 1668.5,346.5 1687.5,346C 1690.76,345.362 1693.76,344.196 1696.5,342.5 Z"/></g>
<g><path style="opacity:1" fill="#15518f" d="M 2154.5,342.5 C 2152.57,358.329 2151.9,374.329 2152.5,390.5C 2151.17,374.995 2151.17,359.328 2152.5,343.5C 2153.18,343.137 2153.85,342.804 2154.5,342.5 Z"/></g>
<g><path style="opacity:1" fill="#accde1" d="M 878.5,300.5 C 879.117,300.611 879.617,300.944 880,301.5C 880.167,305.5 880.333,309.5 880.5,313.5C 880.609,318.278 880.109,322.944 879,327.5C 866.782,330.928 854.616,334.428 842.5,338C 845.288,343.745 848.454,349.245 852,354.5C 863.806,351.01 875.639,347.51 887.5,344C 892.296,342.03 895.963,338.863 898.5,334.5C 897.117,339.719 893.784,343.219 888.5,345C 876.392,348.703 864.225,352.203 852,355.5C 850.739,355.241 849.739,354.574 849,353.5C 845.772,348.064 843.438,342.398 842,336.5C 853.783,333.262 865.617,330.095 877.5,327C 878.126,326.25 878.626,325.416 879,324.5C 879.77,316.452 879.603,308.452 878.5,300.5 Z"/></g>
<g><path style="opacity:1" fill="#cce2ea" d="M 320.5,342.5 C 321.833,342.5 323.167,342.5 324.5,342.5C 325.167,345.167 325.833,347.833 326.5,350.5C 328.199,350.34 329.866,350.506 331.5,351C 329.968,353.33 330.302,355.33 332.5,357C 337.5,357.667 342.5,357.667 347.5,357C 348.078,355.583 349.078,354.75 350.5,354.5C 349.972,355.721 349.305,356.887 348.5,358C 342.833,358.667 337.167,358.667 331.5,358C 327.222,353.281 323.555,348.114 320.5,342.5 Z"/></g>
<g><path style="opacity:1" fill="#a1c5d8" d="M 1360.5,346.5 C 1373.07,353.795 1385.4,361.629 1397.5,370C 1398.25,370.671 1398.59,371.504 1398.5,372.5C 1385.37,364.417 1372.71,355.75 1360.5,346.5 Z"/></g>
<g><path style="opacity:1" fill="#9fc7e4" d="M 1330.5,350.5 C 1334.2,352.879 1337.53,355.546 1340.5,358.5C 1337.48,357.657 1334.82,356.157 1332.5,354C 1331.18,353.184 1330.51,352.017 1330.5,350.5 Z"/></g>
<g><path style="opacity:1" fill="#b0cde0" d="M 548.5,272.5 C 539.5,272.5 530.5,272.5 521.5,272.5C 521.5,307.5 521.5,342.5 521.5,377.5C 532.853,377.832 544.186,377.499 555.5,376.5C 552.505,343.235 550.172,309.902 548.5,276.5C 551.234,313.081 554.4,349.748 558,386.5C 560.863,389.515 564.363,391.349 568.5,392C 574.833,392.667 581.167,392.667 587.5,392C 588.473,386.593 588.807,381.093 588.5,375.5C 584.958,375.813 581.625,375.479 578.5,374.5C 582.167,374.5 585.833,374.5 589.5,374.5C 589.5,375.5 589.5,376.5 589.5,377.5C 592.059,377.198 594.393,377.532 596.5,378.5C 593.941,378.198 591.607,378.532 589.5,379.5C 589.666,383.846 589.499,388.179 589,392.5C 581.914,393.646 574.747,393.812 567.5,393C 558.902,391.907 554.902,387.073 555.5,378.5C 544.167,378.5 532.833,378.5 521.5,378.5C 521.5,384.833 521.5,391.167 521.5,397.5C 513.648,397.825 505.982,397.492 498.5,396.5C 498.833,396.5 499.167,396.5 499.5,396.5C 506.5,396.5 513.5,396.5 520.5,396.5C 520.5,354.833 520.5,313.167 520.5,271.5C 530.015,271.173 539.348,271.506 548.5,272.5 Z"/></g>
<g><path style="opacity:1" fill="#fafcfc" d="M 1330.5,350.5 C 1330.51,352.017 1331.18,353.184 1332.5,354C 1334.82,356.157 1337.48,357.657 1340.5,358.5C 1348.11,363.447 1355.45,368.78 1362.5,374.5C 1363.26,376.567 1364.6,378.234 1366.5,379.5C 1339.51,380.667 1312.51,380.833 1285.5,380C 1297.51,372.33 1309.51,364.663 1321.5,357C 1323.13,356.506 1324.8,356.34 1326.5,356.5C 1326.5,355.167 1326.5,353.833 1326.5,352.5C 1327.51,351.326 1328.85,350.66 1330.5,350.5 Z"/></g>
<g><path style="opacity:1" fill="#125193" d="M 444.5,353.5 C 445.08,357.649 444.414,361.316 442.5,364.5C 443.103,360.727 443.77,357.061 444.5,353.5 Z"/></g>
<g><path style="opacity:1" fill="#aecbe1" d="M 570.5,294.5 C 571.8,296.223 572.467,298.39 572.5,301C 574.272,325.535 576.272,350.035 578.5,374.5C 577.778,374.082 577.278,373.416 577,372.5C 575.059,346.425 572.892,320.425 570.5,294.5 Z"/></g>
<g><path style="opacity:1" fill="#9cccfe" d="M 960.5,366.5 C 960.167,366.5 959.833,366.5 959.5,366.5C 959.5,364.167 959.5,361.833 959.5,359.5C 953.5,359.5 947.5,359.5 941.5,359.5C 941.177,365.69 941.51,371.69 942.5,377.5C 942.5,377.833 942.5,378.167 942.5,378.5C 942.167,378.5 941.833,378.5 941.5,378.5C 940.509,372.021 940.176,365.354 940.5,358.5C 947.167,358.5 953.833,358.5 960.5,358.5C 960.5,361.167 960.5,363.833 960.5,366.5 Z"/></g>
<g><path style="opacity:1" fill="#19508b" d="M 959.5,366.5 C 958.539,364.735 958.205,362.735 958.5,360.5C 953.167,360.5 947.833,360.5 942.5,360.5C 942.5,366.167 942.5,371.833 942.5,377.5C 941.51,371.69 941.177,365.69 941.5,359.5C 947.5,359.5 953.5,359.5 959.5,359.5C 959.5,361.833 959.5,364.167 959.5,366.5 Z"/></g>
<g><path style="opacity:1" fill="#a2cae1" d="M 1276.5,358.5 C 1267.48,364.675 1258.15,370.342 1248.5,375.5C 1257.2,368.814 1266.54,363.147 1276.5,358.5 Z"/></g>
<g><path style="opacity:1" fill="#afccda" d="M 2114.5,332.5 C 2115.66,343.659 2115.83,354.992 2115,366.5C 2114.93,369.276 2113.77,371.442 2111.5,373C 2090.59,374.477 2069.59,374.977 2048.5,374.5C 2048.5,368.5 2048.5,362.5 2048.5,356.5C 2048.5,356.167 2048.5,355.833 2048.5,355.5C 2048.5,355.167 2048.5,354.833 2048.5,354.5C 2049.49,360.645 2049.82,366.978 2049.5,373.5C 2069.93,373.976 2090.26,373.476 2110.5,372C 2112.77,370.442 2113.93,368.276 2114,365.5C 2114.5,354.839 2114.67,344.172 2114.5,333.5C 2114.5,333.167 2114.5,332.833 2114.5,332.5 Z"/></g>
<g><path style="opacity:1" fill="#b1ccd4" d="M 2242.5,334.5 C 2241.64,336.614 2239.97,337.78 2237.5,338C 2215.76,343.801 2194.1,349.801 2172.5,356C 2171.36,361.416 2171.19,366.916 2172,372.5C 2199.6,373.163 2227.1,373.829 2254.5,374.5C 2254.17,374.5 2253.83,374.5 2253.5,374.5C 2225.83,374.5 2198.17,374.5 2170.5,374.5C 2170.19,367.91 2170.52,361.41 2171.5,355C 2195.25,348.315 2218.91,341.481 2242.5,334.5 Z"/></g>
<g><path style="opacity:1" fill="#054bc4" d="M 1054.5,374.5 C 1054.5,374.833 1054.5,375.167 1054.5,375.5C 1053.6,376.29 1052.93,377.29 1052.5,378.5C 1047.8,384.527 1041.46,388.027 1033.5,389C 1007.5,389.667 981.5,389.667 955.5,389C 949.851,388.075 945.518,385.242 942.5,380.5C 942.5,379.833 942.5,379.167 942.5,378.5C 942.5,378.167 942.5,377.833 942.5,377.5C 942.5,371.833 942.5,366.167 942.5,360.5C 947.833,360.5 953.167,360.5 958.5,360.5C 958.205,362.735 958.539,364.735 959.5,366.5C 959.833,366.5 960.167,366.5 960.5,366.5C 960.833,367.5 961.5,368.167 962.5,368.5C 973.662,369.167 984.995,369.5 996.5,369.5C 1008.59,369.647 1020.59,369.147 1032.5,368C 1034.49,366.681 1035.65,364.848 1036,362.5C 1042.31,333.779 1048.81,305.113 1055.5,276.5C 1056,276.167 1056.5,275.833 1057,275.5C 1063.43,277.81 1069.93,279.81 1076.5,281.5C 1069.67,312.648 1062.34,343.648 1054.5,374.5 Z"/></g>
<g><path style="opacity:1" fill="#9eccfb" d="M 1630.5,346.5 C 1630.5,346.833 1630.5,347.167 1630.5,347.5C 1630.5,356.5 1630.5,365.5 1630.5,374.5C 1646.17,374.667 1661.84,374.5 1677.5,374C 1679.94,373.226 1681.77,371.726 1683,369.5C 1683.5,365.848 1683.67,362.182 1683.5,358.5C 1690.5,358.5 1697.5,358.5 1704.5,358.5C 1705.11,364.271 1704.45,369.604 1702.5,374.5C 1702.5,374.167 1702.5,373.833 1702.5,373.5C 1703.49,369.03 1703.82,364.363 1703.5,359.5C 1696.98,359.177 1690.64,359.51 1684.5,360.5C 1684.67,363.85 1684.5,367.183 1684,370.5C 1682.77,372.726 1680.94,374.226 1678.5,375C 1662.17,375.5 1645.84,375.667 1629.5,375.5C 1629.17,365.652 1629.51,355.986 1630.5,346.5 Z"/></g>
<g><path style="opacity:1" fill="#1c4f8e" d="M 1684.5,360.5 C 1690.64,359.51 1696.98,359.177 1703.5,359.5C 1703.82,364.363 1703.49,369.03 1702.5,373.5C 1702.5,369.167 1702.5,364.833 1702.5,360.5C 1696.5,360.5 1690.5,360.5 1684.5,360.5 Z"/></g>
<g><path style="opacity:1" fill="#9dcbfd" d="M 401.5,358.5 C 401.833,358.5 402.167,358.5 402.5,358.5C 402.666,364.176 402.499,369.843 402,375.5C 397.934,376.464 393.767,376.797 389.5,376.5C 369.66,376.83 349.993,376.497 330.5,375.5C 353.836,375.667 377.169,375.5 400.5,375C 401.473,369.593 401.807,364.093 401.5,358.5 Z"/></g>
<g><path style="opacity:1" fill="#1a4f8d" d="M 1580.5,375.5 C 1586.83,375.5 1593.17,375.5 1599.5,375.5C 1599.82,380.695 1599.49,385.695 1598.5,390.5C 1598.5,385.833 1598.5,381.167 1598.5,376.5C 1592.31,376.823 1586.31,376.49 1580.5,375.5 Z"/></g>
<g><path style="opacity:1" fill="#b3ccd2" d="M 1736.5,346.5 C 1753.83,346.5 1771.17,346.5 1788.5,346.5C 1788.67,354.174 1788.5,361.841 1788,369.5C 1786.88,371.624 1785.38,373.457 1783.5,375C 1767.89,376.437 1752.22,376.937 1736.5,376.5C 1736.5,366.5 1736.5,356.5 1736.5,346.5 Z"/></g>
<g><path style="opacity:1" fill="#fcfefe" d="M 1738.5,347.5 C 1754.5,347.333 1770.5,347.5 1786.5,348C 1787.64,354.752 1787.81,361.586 1787,368.5C 1785.3,372.205 1782.47,374.372 1778.5,375C 1765.17,375.667 1751.83,375.667 1738.5,375C 1737.18,365.833 1737.18,356.667 1738.5,347.5 Z"/></g>
<g><path style="opacity:1" fill="#767e8d" d="M 430.5,374.5 C 430.5,374.833 430.5,375.167 430.5,375.5C 430.5,375.833 430.5,376.167 430.5,376.5C 430.5,377.167 430.5,377.833 430.5,378.5C 397.167,378.5 363.833,378.5 330.5,378.5C 330.5,378.167 330.5,377.833 330.5,377.5C 350.167,377.5 369.833,377.5 389.5,377.5C 402.833,377.5 416.167,377.5 429.5,377.5C 429.263,376.209 429.596,375.209 430.5,374.5 Z"/></g>
<g><path style="opacity:1" fill="#182f46" d="M 330.5,377.5 C 330.5,377.833 330.5,378.167 330.5,378.5C 307.167,378.5 283.833,378.5 260.5,378.5C 259.946,384.395 260.612,390.062 262.5,395.5C 245.671,396.827 229.005,396.827 212.5,395.5C 228.167,395.5 243.833,395.5 259.5,395.5C 259.5,389.5 259.5,383.5 259.5,377.5C 283.167,377.5 306.833,377.5 330.5,377.5 Z"/></g>
<g><path style="opacity:1" fill="#1c4f92" d="M 440.5,374.5 C 438.365,376.369 435.698,377.036 432.5,376.5C 432.5,377.833 432.5,379.167 432.5,380.5C 431.833,379.167 431.167,377.833 430.5,376.5C 430.5,376.167 430.5,375.833 430.5,375.5C 433.939,375.747 437.272,375.414 440.5,374.5 Z"/></g>
<g><path style="opacity:1" fill="#0f2650" d="M 54.5,376.5 C 73.8333,376.5 93.1667,376.5 112.5,376.5C 112.5,383.5 112.5,390.5 112.5,397.5C 120.167,397.5 127.833,397.5 135.5,397.5C 135.5,390.833 135.5,384.167 135.5,377.5C 156.5,377.5 177.5,377.5 198.5,377.5C 197.902,387.651 202.568,393.651 212.5,395.5C 229.005,396.827 245.671,396.827 262.5,395.5C 260.612,390.062 259.946,384.395 260.5,378.5C 283.833,378.5 307.167,378.5 330.5,378.5C 363.833,378.5 397.167,378.5 430.5,378.5C 431.372,383.527 432.372,388.527 433.5,393.5C 440.23,393.774 446.897,393.274 453.5,392C 459.246,389.755 462.58,385.588 463.5,379.5C 475.148,378.501 486.814,378.168 498.5,378.5C 498.5,384.5 498.5,390.5 498.5,396.5C 505.982,397.492 513.648,397.825 521.5,397.5C 521.5,391.167 521.5,384.833 521.5,378.5C 532.833,378.5 544.167,378.5 555.5,378.5C 554.902,387.073 558.902,391.907 567.5,393C 574.747,393.812 581.914,393.646 589,392.5C 589.499,388.179 589.666,383.846 589.5,379.5C 614.833,379.5 640.167,379.5 665.5,379.5C 665.833,384.833 666.167,390.167 666.5,395.5C 674.5,395.5 682.5,395.5 690.5,395.5C 689.902,390.187 689.569,384.854 689.5,379.5C 733.167,379.5 776.833,379.5 820.5,379.5C 821.628,384.473 822.628,389.473 823.5,394.5C 830.833,394.5 838.167,394.5 845.5,394.5C 844.809,389.74 843.809,385.074 842.5,380.5C 875.5,380.5 908.5,380.5 941.5,380.5C 943.993,386.089 948.327,389.256 954.5,390C 981.167,390.667 1007.83,390.667 1034.5,390C 1041.87,389.151 1047.87,385.984 1052.5,380.5C 1062.83,380.5 1073.17,380.5 1083.5,380.5C 1084.33,384.136 1084.99,387.803 1085.5,391.5C 1092.91,391.848 1100.24,391.348 1107.5,390C 1111.3,388.699 1113.97,386.199 1115.5,382.5C 1144.49,381.5 1173.49,381.167 1202.5,381.5C 1203.68,381.281 1204.68,381.614 1205.5,382.5C 1206.17,384.5 1206.83,386.5 1207.5,388.5C 1216.14,389.498 1224.81,389.831 1233.5,389.5C 1233.42,386.794 1233.09,384.127 1232.5,381.5C 1238.18,381.334 1243.84,381.501 1249.5,382C 1253.73,386.233 1257.9,390.4 1262,394.5C 1268.4,391.049 1274.57,387.215 1280.5,383C 1310.83,382.333 1341.17,382.333 1371.5,383C 1376.4,386.906 1381.57,390.406 1387,393.5C 1391.32,390.344 1395.16,386.677 1398.5,382.5C 1451.5,382.5 1504.5,382.5 1557.5,382.5C 1560.96,387.076 1565.63,389.909 1571.5,391C 1581.16,391.5 1590.83,391.666 1600.5,391.5C 1600.5,388.833 1600.5,386.167 1600.5,383.5C 1603.83,383.5 1607.17,383.5 1610.5,383.5C 1610.5,385.833 1610.5,388.167 1610.5,390.5C 1635.33,391.663 1660.33,391.83 1685.5,391C 1690.88,390.267 1695.55,388.1 1699.5,384.5C 1705.13,383.505 1710.79,383.171 1716.5,383.5C 1717.17,383.5 1717.5,383.833 1717.5,384.5C 1717.2,387.059 1717.53,389.393 1718.5,391.5C 1729.66,392.167 1741,392.5 1752.5,392.5C 1764.19,392.499 1775.52,391.832 1786.5,390.5C 1789.46,389.939 1792.3,388.939 1795,387.5C 1801.05,390.946 1807.55,392.279 1814.5,391.5C 1814.5,389.167 1814.5,386.833 1814.5,384.5C 1817.17,384.5 1819.83,384.5 1822.5,384.5C 1822.5,386.5 1822.5,388.5 1822.5,390.5C 1829.31,391.491 1836.31,391.825 1843.5,391.5C 1843.5,389.167 1843.5,386.833 1843.5,384.5C 1855.5,384.5 1867.5,384.5 1879.5,384.5C 1879.5,386.833 1879.5,389.167 1879.5,391.5C 1886.83,391.5 1894.17,391.5 1901.5,391.5C 1901.5,389.167 1901.5,386.833 1901.5,384.5C 1913.5,384.5 1925.5,384.5 1937.5,384.5C 1937.5,386.833 1937.5,389.167 1937.5,391.5C 1944.5,391.5 1951.5,391.5 1958.5,391.5C 1958.5,389.167 1958.5,386.833 1958.5,384.5C 1981.83,384.5 2005.17,384.5 2028.5,384.5C 2028.5,386.833 2028.5,389.167 2028.5,391.5C 2057.84,391.667 2087.17,391.5 2116.5,391C 2120.73,390.483 2124.4,388.816 2127.5,386C 2135.16,385.5 2142.83,385.334 2150.5,385.5C 2150.5,387.5 2150.5,389.5 2150.5,391.5C 2185.17,391.5 2219.83,391.5 2254.5,391.5C 2254.5,389.833 2254.5,388.167 2254.5,386.5C 2280.5,386.5 2306.5,386.5 2332.5,386.5C 2332.5,394.5 2332.5,402.5 2332.5,410.5C 2245.17,410.5 2157.83,410.5 2070.5,410.5C 1970.67,409.71 1870.67,409.043 1770.5,408.5C 1595.84,406.501 1420.84,405.835 1245.5,406.5C 1192.5,406.5 1139.5,406.5 1086.5,406.5C 980,405.64 873.333,404.973 766.5,404.5C 742.5,404.5 718.5,404.5 694.5,404.5C 650.668,403.584 606.668,402.918 562.5,402.5C 550.011,402.48 537.678,401.814 525.5,400.5C 445.645,402.493 365.645,403.16 285.5,402.5C 208.5,402.5 131.5,402.5 54.5,402.5C 54.5,393.833 54.5,385.167 54.5,376.5 Z"/></g>
<g><path style="opacity:1" fill="#8e97a1" d="M 941.5,378.5 C 941.833,378.5 942.167,378.5 942.5,378.5C 942.5,379.167 942.5,379.833 942.5,380.5C 942.167,380.5 941.833,380.5 941.5,380.5C 908.5,380.5 875.5,380.5 842.5,380.5C 842.5,380.167 842.5,379.833 842.5,379.5C 875.671,379.832 908.671,379.498 941.5,378.5 Z"/></g>
<g><path style="opacity:1" fill="#aec6dc" d="M 1326.5,352.5 C 1326.5,353.833 1326.5,355.167 1326.5,356.5C 1324.8,356.34 1323.13,356.506 1321.5,357C 1309.51,364.663 1297.51,372.33 1285.5,380C 1312.51,380.833 1339.51,380.667 1366.5,379.5C 1364.6,378.234 1363.26,376.567 1362.5,374.5C 1370.77,380.258 1378.94,386.258 1387,392.5C 1390.37,388.963 1393.87,385.629 1397.5,382.5C 1397.83,382.5 1398.17,382.5 1398.5,382.5C 1395.16,386.677 1391.32,390.344 1387,393.5C 1381.57,390.406 1376.4,386.906 1371.5,383C 1341.17,382.333 1310.83,382.333 1280.5,383C 1274.57,387.215 1268.4,391.049 1262,394.5C 1257.9,390.4 1253.73,386.233 1249.5,382C 1243.84,381.501 1238.18,381.334 1232.5,381.5C 1233.09,384.127 1233.42,386.794 1233.5,389.5C 1224.81,389.831 1216.14,389.498 1207.5,388.5C 1206.83,386.5 1206.17,384.5 1205.5,382.5C 1204.68,381.614 1203.68,381.281 1202.5,381.5C 1202.5,381.167 1202.5,380.833 1202.5,380.5C 1203.59,380.38 1204.25,379.713 1204.5,378.5C 1203.2,375.284 1202.54,371.951 1202.5,368.5C 1204.63,374.673 1206.63,381.007 1208.5,387.5C 1216.47,388.498 1224.47,388.831 1232.5,388.5C 1231.36,383.76 1230.03,379.093 1228.5,374.5C 1230.22,375.574 1231.22,377.241 1231.5,379.5C 1236.46,380.494 1241.46,380.827 1246.5,380.5C 1246.16,378.517 1246.82,377.183 1248.5,376.5C 1248.71,377.922 1249.21,379.255 1250,380.5C 1254.02,384.522 1258.02,388.522 1262,392.5C 1283.44,379.075 1304.94,365.742 1326.5,352.5 Z"/></g>
<g><path style="opacity:1" fill="#d2d3db" d="M 1398.5,372.5 C 1404.25,373.753 1404.91,376.42 1400.5,380.5C 1452.5,381.5 1504.5,381.833 1556.5,381.5C 1557.17,381.5 1557.5,381.833 1557.5,382.5C 1504.5,382.5 1451.5,382.5 1398.5,382.5C 1398.17,382.5 1397.83,382.5 1397.5,382.5C 1398.27,379.675 1399.94,377.508 1402.5,376C 1401.27,374.595 1399.94,373.429 1398.5,372.5 Z"/></g>
<g><path style="opacity:1" fill="#abc5de" d="M 1122.5,352.5 C 1120.82,361.897 1118.82,371.231 1116.5,380.5C 1145.17,380.5 1173.83,380.5 1202.5,380.5C 1202.5,380.833 1202.5,381.167 1202.5,381.5C 1173.49,381.167 1144.49,381.5 1115.5,382.5C 1113.97,386.199 1111.3,388.699 1107.5,390C 1100.24,391.348 1092.91,391.848 1085.5,391.5C 1084.99,387.803 1084.33,384.136 1083.5,380.5C 1073.17,380.5 1062.83,380.5 1052.5,380.5C 1052.5,379.833 1052.5,379.167 1052.5,378.5C 1052.93,377.29 1053.6,376.29 1054.5,375.5C 1054.67,376.822 1054.34,377.989 1053.5,379C 1063.5,379.667 1073.5,379.667 1083.5,379C 1082.58,376.959 1082.24,374.792 1082.5,372.5C 1085.83,372.5 1089.17,372.5 1092.5,372.5C 1089.71,373.477 1086.71,373.81 1083.5,373.5C 1084.37,379.192 1085.37,384.859 1086.5,390.5C 1091.84,390.666 1097.18,390.499 1102.5,390C 1110.31,388.854 1114.81,384.354 1116,376.5C 1117.88,368.295 1120.05,360.295 1122.5,352.5 Z"/></g>
<g><path style="opacity:1" fill="#9bcbf7" d="M 1052.5,378.5 C 1052.5,379.167 1052.5,379.833 1052.5,380.5C 1047.87,385.984 1041.87,389.151 1034.5,390C 1007.83,390.667 981.167,390.667 954.5,390C 948.327,389.256 943.993,386.089 941.5,380.5C 941.833,380.5 942.167,380.5 942.5,380.5C 945.518,385.242 949.851,388.075 955.5,389C 981.5,389.667 1007.5,389.667 1033.5,389C 1041.46,388.027 1047.8,384.527 1052.5,378.5 Z"/></g>
<g><path style="opacity:1" fill="#9fc9ed" d="M 1822.5,294.5 C 1822.83,294.5 1823.17,294.5 1823.5,294.5C 1823.5,326.5 1823.5,358.5 1823.5,390.5C 1823.17,390.5 1822.83,390.5 1822.5,390.5C 1822.5,388.5 1822.5,386.5 1822.5,384.5C 1819.83,384.5 1817.17,384.5 1814.5,384.5C 1814.5,386.833 1814.5,389.167 1814.5,391.5C 1807.55,392.279 1801.05,390.946 1795,387.5C 1792.3,388.939 1789.46,389.939 1786.5,390.5C 1763.91,391.489 1741.24,391.822 1718.5,391.5C 1717.53,389.393 1717.2,387.059 1717.5,384.5C 1717.83,384.5 1718.17,384.5 1718.5,384.5C 1718.5,386.5 1718.5,388.5 1718.5,390.5C 1740.5,390.667 1762.5,390.5 1784.5,390C 1788.71,389.226 1792.38,387.393 1795.5,384.5C 1800.41,389.471 1806.41,391.471 1813.5,390.5C 1813.67,385.821 1813.5,381.155 1813,376.5C 1809.71,375.706 1807.54,373.706 1806.5,370.5C 1806.83,370.5 1807.17,370.5 1807.5,370.5C 1808.91,373.065 1811.07,374.731 1814,375.5C 1814.5,378.146 1814.66,380.813 1814.5,383.5C 1817.17,383.5 1819.83,383.5 1822.5,383.5C 1822.5,353.833 1822.5,324.167 1822.5,294.5 Z"/></g>
<g><path style="opacity:1" fill="#accde7" d="M 1702.5,377.5 C 1702.58,378.93 1702.25,380.264 1701.5,381.5C 1706.46,382.494 1711.46,382.827 1716.5,382.5C 1716.5,382.833 1716.5,383.167 1716.5,383.5C 1710.79,383.171 1705.13,383.505 1699.5,384.5C 1695.55,388.1 1690.88,390.267 1685.5,391C 1660.33,391.83 1635.33,391.663 1610.5,390.5C 1610.83,390.5 1611.17,390.5 1611.5,390.5C 1635.84,390.667 1660.17,390.5 1684.5,390C 1692.88,389.097 1698.88,384.931 1702.5,377.5 Z"/></g>
<g><path style="opacity:1" fill="#9fc0dd" d="M 2182.5,334.5 C 2173.36,337.456 2164.02,340.123 2154.5,342.5C 2153.85,342.804 2153.18,343.137 2152.5,343.5C 2151.17,359.328 2151.17,374.995 2152.5,390.5C 2186.17,390.5 2219.83,390.5 2253.5,390.5C 2253.5,385.167 2253.5,379.833 2253.5,374.5C 2253.83,374.5 2254.17,374.5 2254.5,374.5C 2254.5,378.167 2254.5,381.833 2254.5,385.5C 2280.67,385.169 2306.67,385.502 2332.5,386.5C 2306.5,386.5 2280.5,386.5 2254.5,386.5C 2254.5,388.167 2254.5,389.833 2254.5,391.5C 2219.83,391.5 2185.17,391.5 2150.5,391.5C 2150.5,389.5 2150.5,387.5 2150.5,385.5C 2142.83,385.334 2135.16,385.5 2127.5,386C 2124.4,388.816 2120.73,390.483 2116.5,391C 2087.17,391.5 2057.84,391.667 2028.5,391.5C 2028.5,389.167 2028.5,386.833 2028.5,384.5C 2028.5,374.5 2028.5,364.5 2028.5,354.5C 2035.17,354.5 2041.83,354.5 2048.5,354.5C 2048.5,354.833 2048.5,355.167 2048.5,355.5C 2042.17,355.5 2035.83,355.5 2029.5,355.5C 2029.17,367.345 2029.51,379.012 2030.5,390.5C 2058.84,390.667 2087.17,390.5 2115.5,390C 2122.96,388.684 2128.63,384.851 2132.5,378.5C 2132.5,378.833 2132.5,379.167 2132.5,379.5C 2132.14,381.371 2131.14,382.871 2129.5,384C 2136.49,384.5 2143.49,384.666 2150.5,384.5C 2150.17,370.484 2150.5,356.484 2151.5,342.5C 2161.65,339.047 2171.98,336.38 2182.5,334.5 Z"/></g>
<g><path style="opacity:1" fill="#18508d" d="M 2048.5,355.5 C 2048.5,355.833 2048.5,356.167 2048.5,356.5C 2042.5,356.5 2036.5,356.5 2030.5,356.5C 2030.5,367.833 2030.5,379.167 2030.5,390.5C 2029.51,379.012 2029.17,367.345 2029.5,355.5C 2035.83,355.5 2042.17,355.5 2048.5,355.5 Z"/></g>
<g><path style="opacity:1" fill="#052a41" d="M 1786.5,390.5 C 1775.52,391.832 1764.19,392.499 1752.5,392.5C 1741,392.5 1729.66,392.167 1718.5,391.5C 1741.24,391.822 1763.91,391.489 1786.5,390.5 Z"/></g>
<g><path style="opacity:1" fill="#acc7de" d="M 206.5,299.5 C 211.304,323.305 215.804,347.305 220,371.5C 220.273,373.329 221.107,374.829 222.5,376C 258.167,376.667 293.833,376.667 329.5,376C 326.964,375.661 324.464,375.161 322,374.5C 320.97,374.164 320.47,373.497 320.5,372.5C 323.866,373.716 327.199,374.716 330.5,375.5C 349.993,376.497 369.66,376.83 389.5,376.5C 389.5,376.833 389.5,377.167 389.5,377.5C 369.833,377.5 350.167,377.5 330.5,377.5C 306.833,377.5 283.167,377.5 259.5,377.5C 259.5,383.5 259.5,389.5 259.5,395.5C 243.833,395.5 228.167,395.5 212.5,395.5C 202.568,393.651 197.902,387.651 198.5,377.5C 177.5,377.5 156.5,377.5 135.5,377.5C 135.5,377.167 135.5,376.833 135.5,376.5C 156.167,376.5 176.833,376.5 197.5,376.5C 195.575,365.873 193.908,355.206 192.5,344.5C 195.364,357.658 198.031,370.991 200.5,384.5C 202.137,389.967 205.803,393.134 211.5,394C 227.163,394.5 242.83,394.667 258.5,394.5C 258.5,389.167 258.5,383.833 258.5,378.5C 245.932,377.815 233.265,377.149 220.5,376.5C 214.977,351.363 210.31,326.03 206.5,300.5C 206.5,300.167 206.5,299.833 206.5,299.5 Z"/></g>
<g><path style="opacity:1" fill="#1a4f8d" d="M 220.5,376.5 C 233.265,377.149 245.932,377.815 258.5,378.5C 245.456,379.147 232.789,378.48 220.5,376.5 Z"/></g>
<g><path style="opacity:1" fill="#a6c4e0" d="M 802.5,290.5 C 800.651,291.837 798.484,292.503 796,292.5C 792.662,291.131 789.329,289.798 786,288.5C 784.076,288.581 782.243,288.914 780.5,289.5C 778.833,289.5 777.167,289.5 775.5,289.5C 775.19,292.713 775.523,295.713 776.5,298.5C 777.56,305.889 781.893,309.889 789.5,310.5C 795.16,309.08 800.827,308.747 806.5,309.5C 812.66,337.14 818.66,364.806 824.5,392.5C 831.011,393.818 837.678,393.818 844.5,392.5C 843.972,390.664 843.306,388.997 842.5,387.5C 837.628,362.473 832.628,337.473 827.5,312.5C 832.943,334.616 837.943,356.949 842.5,379.5C 842.5,379.833 842.5,380.167 842.5,380.5C 843.809,385.074 844.809,389.74 845.5,394.5C 838.167,394.5 830.833,394.5 823.5,394.5C 822.628,389.473 821.628,384.473 820.5,379.5C 776.833,379.5 733.167,379.5 689.5,379.5C 689.569,384.854 689.902,390.187 690.5,395.5C 682.5,395.5 674.5,395.5 666.5,395.5C 666.167,390.167 665.833,384.833 665.5,379.5C 640.167,379.5 614.833,379.5 589.5,379.5C 591.607,378.532 593.941,378.198 596.5,378.5C 619.5,378.5 642.5,378.5 665.5,378.5C 664.992,367.507 664.658,356.507 664.5,345.5C 664.5,345.167 664.5,344.833 664.5,344.5C 665.843,360.995 666.843,377.661 667.5,394.5C 674.833,394.5 682.167,394.5 689.5,394.5C 687.94,377.698 687.606,361.031 688.5,344.5C 688.5,344.833 688.5,345.167 688.5,345.5C 688.548,356.511 688.881,367.511 689.5,378.5C 733.168,378.667 776.835,378.5 820.5,378C 815.441,355.54 810.441,333.04 805.5,310.5C 804.667,310.167 803.833,309.833 803,309.5C 783.054,316.141 773.554,309.141 774.5,288.5C 778.332,288.223 782.165,287.89 786,287.5C 787.833,287.833 789.667,288.167 791.5,288.5C 792.337,290.505 793.837,291.505 796,291.5C 798.137,290.923 800.304,290.59 802.5,290.5 Z"/></g>
<g><path style="opacity:1" fill="#194f93" d="M 842.5,387.5 C 843.306,388.997 843.972,390.664 844.5,392.5C 837.678,393.818 831.011,393.818 824.5,392.5C 830.5,392.5 836.5,392.5 842.5,392.5C 842.5,390.833 842.5,389.167 842.5,387.5 Z"/></g>
<g><path style="opacity:1" fill="#3f4c67" d="M 694.5,404.5 C 557.999,404.357 421.665,403.69 285.5,402.5C 365.645,403.16 445.645,402.493 525.5,400.5C 537.678,401.814 550.011,402.48 562.5,402.5C 606.668,402.918 650.668,403.584 694.5,404.5 Z"/></g>
<g><path style="opacity:1" fill="#bdc7dc" d="M 766.5,404.5 C 873.333,404.973 980,405.64 1086.5,406.5C 1003.17,406.667 919.833,406.5 836.5,406C 812.996,405.832 789.663,405.332 766.5,404.5 Z"/></g>
<g><path style="opacity:1" fill="#303e60" d="M 1245.5,406.5 C 1420.84,405.835 1595.84,406.501 1770.5,408.5C 1758.5,408.5 1746.5,408.5 1734.5,408.5C 1571.33,408.518 1408.33,407.851 1245.5,406.5 Z"/></g>
<g><path style="opacity:1" fill="#abb9d0" d="M 1734.5,408.5 C 1746.5,408.5 1758.5,408.5 1770.5,408.5C 1870.67,409.043 1970.67,409.71 2070.5,410.5C 1975.83,410.667 1881.17,410.5 1786.5,410C 1769,409.832 1751.66,409.332 1734.5,408.5 Z"/></g>
</svg>
